<svg width="90" height="90" viewBox="0 0 90 90" fill="none" xmlns="http://www.w3.org/2000/svg">
<path d="M45 0L83.9711 22.5V67.5L45 90L6.02886 67.5V22.5L45 0Z" fill="#EC008C"/>
<g clip-path="url(#clip0)">
<path d="M38.5415 63.8923C38.2666 64.3892 37.2508 65.2859 36.7966 65.71C36.5815 65.6373 36.1512 65.5524 35.6373 65.4434C34.6453 65.5161 33.7968 65.9887 33.1275 66.1947C32.2669 66.4612 31.3945 66.6551 30.4981 66.7521C28.9922 66.9217 27.4146 66.8732 25.9326 66.2189C24.1279 65.4313 22.7296 63.8681 21.7735 61.9051C21.6181 61.5779 20.4707 58.8394 21.2954 59.2635C21.5703 59.3968 22.1081 60.657 22.7176 61.384C25.347 64.474 29.3986 65.4434 32.5657 63.8439C35.207 60.8266 34.8246 56.2099 35.9719 53.3744C38.183 47.8853 42.6887 45.4133 43.8241 44.6257C47.1586 42.2991 51.6165 42.1295 53.3854 38.0217C54.1264 36.3131 53.2539 30.6907 55.5486 27.3584C56.3135 26.2436 57.6879 25.1288 58.9548 24.6077C59.9468 24.2079 60.9866 24.329 62.0144 24.426C62.4088 24.0988 62.8391 23.8807 63.2813 23.602C64.1179 23.0688 64.7633 22.3297 65.4804 21.6511C66.078 21.0816 66.7114 20.7302 67.4165 21.2633C68.2292 21.8692 68.7551 22.8871 68.9583 23.9776C66.9743 25.2742 63.2454 27.9643 61.7873 29.3456C60.0305 31.0057 59.6719 34.5804 59.4329 37.5855L59.2058 39.8878C58.8233 42.0568 57.5087 43.8138 55.3813 44.9407C54.3296 45.4739 53.2898 45.7284 52.1305 45.9222C51.4134 46.0555 50.6604 46.0555 49.9433 46.1404C48.9394 46.2858 47.8279 46.2979 46.824 46.5402C45.7603 46.7826 44.6488 47.4127 44.7324 48.685C44.8759 50.648 46.8718 51.7871 48.4374 52.4293C48.9992 52.6474 49.6206 52.9625 49.5967 53.6774C49.5728 54.2711 49.1665 54.5862 48.6287 54.5135C47.314 54.356 46.3818 53.1442 45.1866 52.708C43.2743 52.0536 39.6769 51.884 38.661 54.1015C37.9081 55.7858 38.0874 58.597 40.155 59.0454C41.4099 59.3362 42.8202 58.9969 43.8839 58.2941C44.589 57.8458 46.2144 57.2884 46.2383 58.7061C46.2622 59.7603 45.1627 60.0027 44.3261 60.0754C43.2265 60.1723 42.2226 59.8936 41.2067 60.5116C40.0235 61.2629 39.1511 62.717 38.5415 63.8923ZM62.8988 30.5331C61.9905 31.3935 61.5603 33.2353 61.3093 35.162L61.0702 37.4401C61.0463 37.6945 61.0344 37.9369 61.0105 38.1792C60.9866 38.5185 60.7954 40.1544 60.7954 40.1544C60.3531 42.8202 58.6919 45.0377 56.1342 46.3706C54.8554 47.0492 53.1105 47.2673 51.6763 47.3521C50.5529 47.4248 48.9274 47.3521 48.4972 48.6971C48.306 49.3272 48.4733 49.8119 48.8796 50.2966C49.9433 51.5568 52.0229 50.6117 52.8237 52.3808C53.1702 53.1563 53.0866 54.0288 52.5966 54.7801C50.8516 57.3611 47.8399 55.7979 46.0232 54.877L45.1029 54.4287C43.8122 53.847 42.4258 53.8228 41.6489 54.3802C41.1231 54.7679 40.884 55.398 40.9318 56.3069C40.9677 56.7431 41.1111 57.1187 41.3262 57.3126C41.4816 57.4459 41.6728 57.4944 41.9358 57.4822C42.3182 57.458 42.5692 57.2884 42.9756 56.9854L43.8839 56.4159C45.0432 55.8585 47.1945 55.6404 48.2701 56.634C48.6526 56.9733 49.1904 57.7367 48.7004 59.1181C48.1506 60.6328 46.5849 61.4325 45.3539 61.5537L44.1588 61.6022C43.37 61.59 42.5931 61.5779 42.0553 61.9172C41.1709 62.4261 40.4538 63.7227 39.9638 64.6194C39.6769 65.1647 39.1032 65.8675 38.5176 66.3764C39.3662 67.2973 39.5216 67.8063 41.0035 68.0244C42.366 68.2061 43.8361 67.9517 45.2105 68.0244C47.2064 68.1213 53.6364 70.048 53.6005 66.4734C53.6005 65.7948 53.3615 65.2131 53.0985 64.9344C52.8356 64.6557 52.011 64.6921 52.011 64.6921C51.9392 64.4982 52.2858 64.4134 52.3097 64.0014C52.4173 62.1474 51.2341 62.414 49.5728 61.7839C49.3816 59.7482 51.1385 59.2877 52.7519 58.7061C54.3654 58.1366 55.5367 56.525 55.9311 58.597C56.194 59.9421 56.4928 60.8751 56.684 62.4383C56.923 64.3892 57.2577 64.886 58.3214 65.1647C58.5963 65.2374 59.3373 65.2737 59.6958 65.2253C59.887 66.2552 59.7197 66.3158 60.2814 67.6851C60.7954 68.9938 62.5642 69.2482 63.9984 68.7878C65.4923 68.3152 64.8589 67.1156 64.1179 65.8554C63.4964 64.7769 62.5522 63.8802 62.2893 62.6806C61.9666 61.1659 62.4566 59.4089 62.612 57.9548C62.7793 56.3674 62.5642 54.6104 62.9466 53.0352C63.3769 51.2418 64.6318 49.6665 65.0501 47.8489C65.815 44.553 64.7752 41.0389 64.7752 37.6824C64.7752 36.7494 65.4206 33.2353 65.5401 32.2902C66.6158 30.9694 67.4285 29.4426 68.1934 27.9037C68.2173 27.8916 68.2412 27.8794 68.2651 27.8431C68.7073 27.3099 68.9702 26.6071 69.0778 25.8316C67.0819 27.2009 64.1537 29.3335 62.8988 30.5331Z" fill="white"/>
</g>
<defs>
<clipPath id="clip0">
<rect width="48" height="48" fill="white" transform="translate(21 21)"/>
</clipPath>
</defs>
</svg>
