<svg width="90" height="90" viewBox="0 0 90 90" fill="none" xmlns="http://www.w3.org/2000/svg">
<path d="M45 0L83.9711 22.5V67.5L45 90L6.02886 67.5V22.5L45 0Z" fill="#EC008C"/>
<path d="M34.052 38.558L34.1896 36.2561L30.7358 36.583L33.9557 35.2209L31.2037 33.709L34.3272 34.1313L32.6623 27.8113L35.2905 33.709L36.2262 32.4696L36.3362 34.3356L40.2717 33.2187L36.8178 35.5342L38.5654 36.3106L36.5014 36.5285L38.0287 42.3445L35.2492 36.9235L34.052 38.558ZM54.8162 36.6919C53.1788 36.6919 51.2248 37.373 50.0414 38.7214C48.8305 40.2197 47.3169 40.9824 45.3354 40.9688C46.6151 40.6011 47.3719 40.2878 48.115 39.634C47.8811 39.6749 47.6334 39.7157 47.3857 39.7157C46.0785 39.7157 44.5786 38.953 43.6154 37.9995C43.2026 37.5909 42.7485 37.1959 42.2256 36.8282L41.9917 36.869L38.648 37.6318L39.6937 46.4715L34.8089 39.5931L34.1208 40.1924C34.1208 40.2333 34.1071 40.2605 34.1071 40.3014C34.4236 47.6838 36.061 53.5542 38.7993 58.5666C40.3405 61.3861 41.4688 63.2249 43.3264 63.1159C45.0602 63.0069 45.9959 60.7051 46.6427 58.267C46.9454 57.1228 47.716 56.4827 48.6104 56.3328C49.7249 56.1285 50.6331 56.2239 51.6927 56.6734C52.5183 57.0139 53.0274 57.7766 53.2613 58.7846C53.6466 60.4054 54.885 61.8492 56.3023 61.7811C58.0499 61.6857 58.848 60.3918 59.247 57.1228C59.6461 53.8675 60.2515 49.8631 60.8982 46.5669C61.4211 43.8564 61.545 41.9223 60.5267 39.8792C59.5497 37.9314 57.0316 36.6919 54.8162 36.6919ZM66.7326 48.2967C66.251 50.7348 65.7281 54.0446 65.3428 57.1773C64.2557 66.0035 58.8617 67.6107 55.7519 67.7878C53.7567 67.8559 51.8578 67.3383 50.2203 66.3031C48.2939 68.21 46.106 68.8502 44.2621 68.9728C44.0282 68.9864 43.7943 69 43.5604 69C37.5884 69 34.7813 63.8923 33.254 61.1001C30.1579 55.4611 28.5067 49.1003 28.1764 41.6498C28.1351 40.6692 28.2177 40.0699 28.4103 39.5659L24.6951 39.525C24.6951 39.525 23.264 39.7838 23.0301 38.6942C22.7824 37.5773 24.1447 37.0052 24.1447 37.0052L27.7086 34.7033L26.4702 33.0825C25.961 32.6194 25.8097 31.9111 26.0711 31.2982C26.3326 30.6853 26.9793 30.3039 27.6123 30.3039L30.2267 30.372L29.1947 22.8943C29.0571 22.1043 29.5249 21.3279 30.3093 21.0827C31.0798 20.824 31.9192 21.1917 32.277 21.9136L35.717 27.6751L36.9004 26.817C36.9004 26.817 37.382 26.422 37.9737 26.5174C38.5654 26.6127 38.6617 27.0622 38.6617 27.0622L39.1433 29.8272C39.1433 29.8272 39.4598 29.7863 39.9001 29.7727C41.7991 29.7591 44.5236 30.3311 47.3857 32.4287C49.5323 31.1756 52.0091 30.5763 54.541 30.7534C54.5548 30.7534 54.5548 30.7534 54.5685 30.7534C58.27 31.0122 62.1642 31.7204 65.4804 37.1414C68.0948 41.4183 67.2417 45.7224 66.7326 48.2967ZM63.6778 38.735C61.9991 35.3435 58.1187 33.0552 54.0319 33.0552C51.5551 33.0552 49.1333 33.8997 47.2756 35.3571C45.7482 33.9406 44.2621 33.137 42.9136 32.6739L44.097 31.8294L40.7808 32.1563C40.4506 32.1154 40.1478 32.0882 39.8589 32.0882C39.0883 32.0746 38.3452 32.2108 37.6159 32.3878L37.6435 28.2063L35.5657 31.3391L30.8872 22.6627L32.6898 32.742L27.5985 32.1018L31.1211 35.0847L26.4702 37.6863L31.3413 37.6045C30.7909 38.844 30.4881 40.1788 30.5432 41.5409C30.8459 48.6372 32.4146 54.6575 35.3317 59.9832C36.8041 62.6664 38.992 66.6573 43.6016 66.6573C43.7805 66.6573 43.9456 66.6573 44.1383 66.6436C46.5463 66.4938 48.4728 65.268 49.8901 62.9933C51.4037 64.6142 53.454 65.554 55.6556 65.4586C58.559 65.2952 62.2055 63.688 63.0448 56.8913C63.4439 53.6768 63.953 50.3806 64.4484 47.8472C64.9438 45.2184 65.3566 42.1266 63.6778 38.735Z" fill="white"/>
</svg>
