<svg width="68" height="68" viewBox="0 0 68 68" fill="none" xmlns="http://www.w3.org/2000/svg">
<path d="M34 0L63.4449 17V51L34 68L4.55514 51V17L34 0Z" fill="#EC008C"/>
<g clip-path="url(#clip0_1569_29662)">
<path d="M25.1894 46.8809C25.1562 46.8962 25.1233 46.9107 25.0906 46.9245C25.1238 46.9107 25.1567 46.8962 25.1894 46.8809Z" fill="white"/>
<path d="M49.0155 31.4259C49.0152 31.4228 49.0152 31.4197 49.0155 31.4167C49.0079 31.3401 48.9987 31.2681 48.988 31.1953C48.9841 31.1685 48.9788 31.1425 48.9749 31.1187C48.9665 31.0697 48.9588 31.0199 48.9489 30.9709C48.9428 30.9402 48.9351 30.9104 48.929 30.8797C48.919 30.8361 48.9098 30.7916 48.8983 30.7487C48.8868 30.7059 48.8815 30.6852 48.8731 30.6538C48.8646 30.6224 48.8508 30.571 48.8386 30.5304C48.8263 30.4898 48.8179 30.4661 48.8079 30.4347C48.798 30.4033 48.7819 30.3581 48.7681 30.3167C48.7543 30.2754 48.7444 30.2532 48.7321 30.221C48.7199 30.1888 48.703 30.1444 48.6877 30.1084C48.6724 30.0724 48.6616 30.0456 48.6479 30.0142C48.6341 29.9828 48.6149 29.9376 48.5981 29.9046C48.5812 29.8717 48.569 29.8434 48.5536 29.8127C48.5383 29.7821 48.5184 29.7415 48.4993 29.707C48.4801 29.6725 48.4671 29.6465 48.451 29.6174C48.4349 29.5883 48.4119 29.5484 48.392 29.5147L48.3392 29.4274C48.3185 29.3937 48.297 29.3608 48.2756 29.3278C48.2541 29.2949 48.2381 29.2719 48.2189 29.2444C48.1998 29.2168 48.1737 29.1792 48.1507 29.1471C48.1277 29.1149 48.1117 29.0934 48.091 29.0666C48.0703 29.0398 48.042 29.0038 48.0144 28.9724L47.9531 28.8958C47.9271 28.8644 47.8995 28.8338 47.8727 28.8031L47.8099 28.7319C47.7808 28.7005 47.7501 28.6699 47.7202 28.6392C47.6904 28.6086 47.6796 28.5963 47.659 28.5756C47.6237 28.5412 47.5877 28.5075 47.5517 28.4738C47.5349 28.4584 47.5188 28.4416 47.5012 28.4263C47.4483 28.378 47.3939 28.3313 47.338 28.2853C47.3227 28.2723 47.3058 28.2601 47.2898 28.247C47.2492 28.2149 47.2086 28.1827 47.1672 28.1521C47.1442 28.1344 47.1205 28.1183 47.0975 28.1015C47.0623 28.0762 47.027 28.0502 46.9903 28.0249L46.9137 27.9743C46.8792 27.9514 46.8447 27.9291 46.8095 27.9077L46.726 27.8587C46.6915 27.838 46.6563 27.8181 46.621 27.7982L46.5337 27.7522L46.428 27.6978L46.3369 27.6549C46.3016 27.6388 46.2656 27.622 46.2289 27.6067C46.1921 27.5913 46.1676 27.5799 46.1362 27.5676C46.1048 27.5553 46.0596 27.5377 46.0259 27.5239C45.9922 27.5102 45.9631 27.5002 45.9309 27.4895C45.8987 27.4787 45.8543 27.4634 45.8183 27.4512L45.7218 27.4205L45.6061 27.3876C45.5739 27.3792 45.541 27.37 45.5081 27.3623L45.3901 27.334C45.3572 27.3271 45.3242 27.3194 45.2913 27.3133C45.2584 27.3072 45.2101 27.298 45.1695 27.2911C45.1289 27.2842 45.1044 27.2796 45.0715 27.275L44.9451 27.2581L44.8486 27.2467L44.7145 27.2367C44.6839 27.2367 44.6532 27.2313 44.6226 27.2298C44.5736 27.2298 44.5245 27.2298 44.4748 27.2252H44.3982C44.3468 27.2252 44.2947 27.2252 44.245 27.2252H44.1684C44.0918 27.229 44.0152 27.2344 43.9332 27.2421C43.8351 27.252 43.7379 27.2643 43.6414 27.2796C43.5448 27.2949 43.4698 27.3102 43.3855 27.3286C43.3288 27.3416 43.2721 27.3547 43.2162 27.3692C42.9619 27.4352 42.7136 27.5225 42.474 27.6304C42.3897 27.6679 42.307 27.707 42.2258 27.7514C41.8788 27.931 41.5558 28.1536 41.2645 28.414C41.194 28.4776 41.1258 28.5435 41.0592 28.6109C40.7699 28.9056 40.5206 29.237 40.3177 29.5967C39.8455 30.4327 39.1466 31.1183 38.3017 31.5745C37.943 31.7699 37.5628 31.9229 37.1688 32.0302C37.0922 32.0509 37.0194 32.0701 36.9443 32.0869C36.8693 32.1038 36.7842 32.1214 36.703 32.136C36.592 32.1559 36.4794 32.1727 36.3668 32.1857C36.3668 32.1857 35.8627 32.1674 35.3235 32.0984C35.0535 32.0629 34.7976 31.9573 34.5812 31.792C34.4947 31.7269 34.4151 31.6529 34.3438 31.5714C34.3078 31.5308 34.2733 31.4879 34.2411 31.4435C33.6411 30.6079 32.7687 30.0074 31.7739 29.7453C31.6881 29.7231 31.6016 29.7016 31.5135 29.684C31.443 29.6695 31.3718 29.6572 31.3005 29.6465C31.2775 29.6427 31.2538 29.6404 31.23 29.6373C31.1826 29.6304 31.1351 29.6243 31.0876 29.6197L31.0025 29.612C30.9604 29.612 30.9175 29.6051 30.8746 29.6028H30.785C30.7444 29.6028 30.7038 29.6028 30.6632 29.6028H30.5529H30.4717C30.4319 29.6028 30.3951 29.6074 30.3538 29.6097L30.2772 29.6143L30.1477 29.6273L30.0857 29.6342C30.0221 29.6419 29.9585 29.6511 29.8957 29.6618C29.8551 29.6687 29.8137 29.6733 29.7731 29.6771H29.7425C29.7019 29.6771 29.6613 29.6825 29.6207 29.6825C29.577 29.6825 29.5334 29.6825 29.4905 29.6771H29.4637C29.4215 29.6725 29.3794 29.6672 29.3381 29.6595L29.3151 29.6549C29.2752 29.6473 29.2385 29.6388 29.1979 29.6281L29.1833 29.6243C29.142 29.6128 29.1021 29.599 29.0623 29.5837L29.0355 29.5737C28.9964 29.5576 28.9589 29.5408 28.9191 29.5216L28.9045 29.5147C28.8693 29.4964 28.834 29.4764 28.8003 29.4558C28.7934 29.4521 28.7868 29.448 28.7804 29.4435C28.7444 29.4213 28.7092 29.3968 28.6747 29.3707L28.6533 29.3539C28.6188 29.3263 28.5843 29.298 28.5514 29.2673L28.5299 29.2466L28.4679 29.1877L28.4273 29.1486C28.2603 28.987 28.1408 28.8621 28.1408 28.8621C27.7795 28.4023 27.5437 27.8565 27.4565 27.2783C27.3692 26.7 27.4334 26.109 27.6429 25.563C27.9275 24.8133 28.0151 24.0031 27.8974 23.2099C27.7796 22.4167 27.4605 21.6669 26.9704 21.0322C26.9374 20.9893 26.903 20.9464 26.8677 20.9043C26.8134 20.8384 26.7567 20.7748 26.6992 20.7128C26.6801 20.6921 26.6609 20.6729 26.641 20.6523C26.6019 20.6117 26.5644 20.5703 26.5215 20.5312C26.4978 20.5083 26.474 20.4868 26.4503 20.4646C26.4127 20.4294 26.3737 20.3941 26.3354 20.3604C26.3101 20.3382 26.2841 20.3168 26.2588 20.2953C26.2205 20.2631 26.1822 20.2317 26.1424 20.2011C26.1163 20.1804 26.0887 20.1597 26.0658 20.1398C26.0259 20.1099 25.9892 20.0808 25.9447 20.0525L25.8635 19.9966C25.8206 19.9682 25.7777 19.9414 25.7341 19.9138L25.6575 19.8656C25.6092 19.8372 25.561 19.8104 25.5119 19.7844L25.4445 19.7469C25.3787 19.7124 25.3128 19.6802 25.2461 19.6496L25.227 19.6396C25.1504 19.6059 25.0738 19.5737 25.0018 19.5439L24.9466 19.5232C24.8892 19.5017 24.8325 19.4803 24.7751 19.4611L24.6985 19.4359C24.6487 19.4198 24.5981 19.4037 24.5453 19.3899L24.4564 19.3662C24.4082 19.3539 24.3599 19.3417 24.3116 19.3309C24.281 19.3233 24.2496 19.3171 24.2182 19.3102L24.0742 19.2834L23.9723 19.2674C23.9241 19.2605 23.875 19.2536 23.826 19.2482L23.7333 19.2375C23.682 19.2321 23.6307 19.2283 23.5801 19.2245L23.4913 19.2222C23.4308 19.2222 23.3702 19.2176 23.3097 19.2168H23.1987C23.1443 19.2168 23.0907 19.2168 23.037 19.2214L22.9604 19.226C22.9145 19.226 22.8685 19.2321 22.8226 19.2367L22.7467 19.2421C22.7023 19.2467 22.6579 19.252 22.6142 19.2582L22.5315 19.2704C22.4871 19.2773 22.4434 19.285 22.399 19.2934L22.3224 19.3087C22.2764 19.3179 22.2305 19.3286 22.1853 19.3394L22.1087 19.3562C22.0576 19.37 22.0065 19.3845 21.9555 19.3999L21.9041 19.4137C21.8344 19.4351 21.7655 19.4581 21.6966 19.4826C21.69 19.4844 21.6836 19.4867 21.6774 19.4895C21.6161 19.5117 21.5548 19.5347 21.4936 19.56C21.4721 19.5684 21.4514 19.5783 21.43 19.5875C21.3848 19.6067 21.3388 19.6266 21.2936 19.6473L21.2147 19.6818C21.1726 19.7017 21.132 19.7223 21.0907 19.7438L21.0141 19.7852C20.9742 19.8066 20.9375 19.8296 20.8953 19.8526L20.8187 19.8978C20.7789 19.9215 20.7421 19.9468 20.7008 19.9744L20.6295 20.0211C20.5874 20.0502 20.546 20.0801 20.5047 20.1099L20.4457 20.1528C20.3852 20.198 20.3254 20.2448 20.2665 20.2938C20.0223 20.4962 19.7993 20.7228 19.6008 20.9701C19.4558 21.1504 19.3247 21.3415 19.2086 21.5416C19.094 21.7383 18.9939 21.9431 18.9091 22.1544C18.8815 22.2248 18.8547 22.2953 18.8325 22.3665C18.5125 23.299 18.4924 24.3083 18.7751 25.2528C18.956 25.8526 19.2559 26.4098 19.6567 26.8912V26.8912C19.7096 26.9548 19.764 27.0153 19.8191 27.0758L19.8452 27.1042C19.898 27.1609 19.9524 27.2152 20.0076 27.2689L20.0397 27.2995C20.0956 27.3531 20.1531 27.4052 20.2113 27.4527L20.2343 27.4719C20.2925 27.5216 20.3515 27.5691 20.4112 27.6151L20.4258 27.6266C20.4871 27.6733 20.5499 27.7185 20.6134 27.7622L20.6472 27.7851C20.7092 27.8265 20.772 27.8671 20.8356 27.9054L20.8708 27.9261C20.9367 27.9651 21.0026 28.0027 21.07 28.0379L21.0853 28.0463C21.1512 28.0808 21.2178 28.1138 21.2852 28.1444L21.3113 28.1566C21.3794 28.1881 21.4476 28.2172 21.5165 28.2447L21.5556 28.2601C21.6246 28.2869 21.6935 28.3121 21.7632 28.3367L21.7969 28.3481C21.9429 28.3956 22.091 28.4362 22.2412 28.4699L22.2756 28.4776C22.3469 28.4929 22.4189 28.5067 22.4909 28.5182L22.533 28.5251C22.605 28.5366 22.6786 28.5465 22.7513 28.5542H22.7804C22.857 28.5619 22.926 28.568 22.9987 28.5718H23.0164C23.093 28.5764 23.1696 28.5779 23.24 28.5779H23.2883H23.3771H23.4415C23.4729 28.5779 23.5035 28.5779 23.5342 28.5733H23.5947C23.6291 28.5733 23.6628 28.5672 23.6973 28.5642C23.7142 28.5642 23.731 28.5642 23.7471 28.5596C23.7984 28.555 23.849 28.5488 23.9003 28.5419C23.9731 28.532 24.0466 28.5243 24.1201 28.519C24.1447 28.519 24.1699 28.519 24.1967 28.519C24.245 28.519 24.2933 28.5144 24.3415 28.5144C24.4105 28.5144 24.4779 28.5144 24.546 28.5213C24.5682 28.5213 24.5897 28.5251 24.6119 28.5266L24.7498 28.5404L24.8264 28.5519C24.8677 28.558 24.9091 28.5649 24.9505 28.5726L25.0271 28.5887L25.1481 28.617L25.2247 28.6377C25.2653 28.6492 25.3059 28.6622 25.3457 28.6752L25.4223 28.699C25.466 28.7143 25.5089 28.7304 25.5518 28.7472L25.6123 28.771C25.7373 28.8232 25.859 28.8828 25.9769 28.9494L26.0313 28.9824C26.0719 29.0061 26.1117 29.0299 26.1508 29.059L26.2144 29.1019C26.2496 29.1256 26.2841 29.1501 26.3185 29.1785C26.3407 29.1946 26.3622 29.2114 26.3836 29.2283C26.4051 29.2451 26.4487 29.2796 26.4809 29.3049L26.5437 29.3585C26.5751 29.3861 26.6065 29.4152 26.6372 29.4443C26.6678 29.4734 26.6762 29.4803 26.6954 29.4994C26.7283 29.5316 26.7597 29.5653 26.7919 29.5998C26.8072 29.6166 26.8233 29.6327 26.8379 29.6496C26.8838 29.7001 26.9283 29.753 26.9712 29.8028C27.0266 29.8868 27.0738 29.9761 27.1121 30.0693C27.1236 30.0969 27.1343 30.1237 27.1443 30.152C27.1616 30.2031 27.1769 30.2542 27.1902 30.3052C27.2552 30.5757 27.247 30.8586 27.1665 31.1249C27.1443 31.1987 27.1164 31.2706 27.083 31.3401C27.049 31.4108 27.0098 31.4789 26.9658 31.5438C26.9254 31.6036 26.8864 31.6641 26.8486 31.7254C26.7344 31.912 26.6343 32.1068 26.5491 32.3083C26.0953 33.3834 26.0816 34.5936 26.5108 35.6787C26.6622 36.0618 26.6565 36.4892 26.4949 36.8682C26.3333 37.2472 26.0288 37.5472 25.6475 37.7032V37.7032C25.5993 37.7238 25.5502 37.743 25.502 37.7614L25.4713 37.7729C25.4239 37.7912 25.3756 37.8081 25.3281 37.825L25.3013 37.8341C25.2553 37.8495 25.2094 37.8648 25.1634 37.8786L25.1481 37.8839C25.0991 37.8985 25.0508 37.9115 25.0026 37.9245L24.9719 37.9322C24.9237 37.9444 24.8762 37.9559 24.8287 37.9659H24.808C24.7636 37.9751 24.7199 37.9827 24.6763 37.9896H24.654C24.6081 37.9965 24.5629 38.0019 24.5177 38.0057H24.4886C24.4434 38.0096 24.3982 38.0119 24.3545 38.0119H24.34C24.3055 38.0119 24.271 38.0119 24.2373 38.008H24.2067C24.1684 38.0042 24.1301 37.9996 24.0956 37.9935C24.0344 37.982 23.9723 37.9728 23.911 37.9644L23.8605 37.9575C23.8092 37.9513 23.7571 37.9452 23.7073 37.9406L23.6743 37.9368C23.6131 37.9314 23.551 37.9276 23.4897 37.9245H23.4445C23.3948 37.9245 23.345 37.9245 23.2913 37.9245H23.2469C23.1772 37.9245 23.1075 37.9245 23.0378 37.9299H22.9957C22.9244 37.9345 22.8532 37.9391 22.782 37.9467C22.71 37.9536 22.6387 37.9636 22.5683 37.9743L22.5261 37.9804C22.4572 37.9912 22.389 38.0034 22.3208 38.0172L22.2818 38.0256C22.2159 38.0394 22.15 38.0547 22.0841 38.0716L22.0673 38.0762C21.9991 38.0938 21.9309 38.1145 21.8628 38.1352L21.8199 38.149C21.7532 38.1704 21.6866 38.1934 21.6207 38.2179L21.5886 38.2302C21.5265 38.2539 21.4652 38.2784 21.4039 38.3068L21.3779 38.3175C21.3128 38.3458 21.2485 38.3765 21.1849 38.4079L21.1443 38.4278C21.0799 38.4607 21.0171 38.4937 20.9543 38.5289L20.9306 38.5427C20.8724 38.5764 20.8141 38.6116 20.7567 38.6476L20.7268 38.6668C20.6663 38.7058 20.6073 38.7434 20.5483 38.7878L20.5116 38.8146C20.4518 38.8575 20.3928 38.9019 20.3346 38.9487L20.3224 38.9594C20.2665 39.0038 20.2128 39.0498 20.1592 39.0973L20.1286 39.1248C20.0734 39.1759 20.0198 39.227 19.9677 39.278L19.9363 39.3094C19.8819 39.3646 19.8283 39.4197 19.7762 39.478C19.4085 39.8863 19.1156 40.3561 18.9107 40.8659C18.854 41.0079 18.8044 41.1516 18.7621 41.2972C18.7197 41.4427 18.6842 41.5911 18.6556 41.7422C18.5056 42.5336 18.5624 43.3503 18.8203 44.1134C19.0782 44.8765 19.5285 45.5602 20.1278 46.0984C20.186 46.1495 20.245 46.2005 20.3048 46.2516L20.3653 46.2983C20.4059 46.3305 20.4465 46.3627 20.4878 46.3925C20.5123 46.4109 20.5369 46.4278 20.5644 46.4454L20.677 46.522L20.759 46.5741C20.7958 46.597 20.8356 46.6208 20.8693 46.6422C20.903 46.6637 20.9267 46.6759 20.9558 46.692L21.0654 46.7533L21.1558 46.7993C21.1918 46.8177 21.2285 46.836 21.2653 46.8529C21.3021 46.8697 21.3274 46.882 21.358 46.895C21.3886 46.908 21.4346 46.928 21.4691 46.9433L21.5633 46.9808C21.6008 46.9954 21.6399 47.0099 21.6766 47.0229L21.7716 47.0566C21.8099 47.0697 21.8482 47.0812 21.8873 47.0934L21.9815 47.1218L22.101 47.1532C22.1316 47.1608 22.163 47.1692 22.1944 47.1761C22.2259 47.183 22.2772 47.1945 22.3185 47.2029L22.4082 47.2213C22.4526 47.2298 22.4978 47.2367 22.543 47.2435C22.5698 47.2435 22.5966 47.2527 22.6196 47.2558C22.6755 47.2635 22.7322 47.2696 22.7889 47.2757L22.8356 47.2811C22.9084 47.2872 22.9804 47.2918 23.0531 47.2949H23.1129C23.165 47.2949 23.217 47.2949 23.2661 47.2949C23.3151 47.2949 23.3779 47.2949 23.4338 47.2903H23.4989C23.5755 47.2857 23.6521 47.2803 23.7287 47.2719L23.7793 47.2658C23.8398 47.2589 23.9003 47.252 23.9601 47.2428L24.0451 47.2282L24.1898 47.2022L24.2848 47.1807C24.3293 47.1708 24.3729 47.1608 24.4173 47.1493L24.5162 47.1225L24.6425 47.0858C24.6755 47.0758 24.7092 47.0643 24.7421 47.0528L24.8647 47.0107L24.965 46.9724C25.0049 46.9571 25.0416 46.941 25.0838 46.9241C25.1259 46.9073 25.1496 46.8958 25.1826 46.8805C25.2155 46.8651 25.2592 46.8452 25.299 46.8261C25.3388 46.8069 25.3641 46.7939 25.397 46.7778C25.43 46.7617 25.4736 46.738 25.5104 46.7165C25.5472 46.6951 25.574 46.6821 25.6054 46.6637L25.718 46.5955C25.7486 46.5771 25.7793 46.558 25.8091 46.5381C25.839 46.5182 25.8857 46.4883 25.9202 46.4615L26.0075 46.4002C26.0451 46.3726 26.0841 46.3443 26.1178 46.3159L26.1998 46.2524C26.2381 46.2217 26.2764 46.1895 26.3124 46.1574C26.3369 46.1359 26.3622 46.1152 26.389 46.093C26.4296 46.057 26.4694 46.0164 26.5093 45.9804C26.5284 45.9613 26.5491 45.9429 26.5682 45.923C26.6272 45.8648 26.6847 45.8043 26.7406 45.7422C26.9585 45.4997 27.1508 45.2353 27.3143 44.9532C27.3679 44.8606 27.4177 44.7671 27.4675 44.6721C27.5288 44.548 27.5824 44.4224 27.6322 44.2945C27.9939 43.3522 28.0428 42.3185 27.7716 41.3462C27.7433 41.2466 27.7126 41.1478 27.6782 41.0498C27.6582 40.9931 27.6399 40.9364 27.6238 40.8789C27.5097 40.4837 27.4743 40.0699 27.5196 39.661V39.661C27.5244 39.616 27.5315 39.5713 27.541 39.527C27.541 39.5193 27.541 39.5117 27.5456 39.504C27.5541 39.4619 27.5648 39.4205 27.577 39.3799C27.577 39.3715 27.5824 39.3638 27.5847 39.3554C27.5977 39.3148 27.6123 39.2742 27.6284 39.2344L27.633 39.2252C27.6491 39.1869 27.6667 39.1486 27.6851 39.1133L27.6942 39.0965C27.7134 39.0597 27.7348 39.0199 27.7571 38.9893L27.7708 38.9686C27.7931 38.9341 27.8176 38.9004 27.8428 38.8682C27.8428 38.8636 27.8497 38.8598 27.8528 38.856C27.8781 38.8246 27.9041 38.7939 27.9294 38.7656L27.9386 38.7549C27.9669 38.725 27.9968 38.6966 28.0275 38.6691L28.0451 38.6538C28.0757 38.6269 28.1071 38.6009 28.1401 38.5772L28.1561 38.5657C28.1891 38.5412 28.2235 38.5182 28.258 38.4975H28.2626C28.2986 38.4753 28.3354 38.4554 28.3729 38.437L28.3928 38.427C28.4296 38.4094 28.4694 38.3925 28.5047 38.378L28.5253 38.3703C28.5644 38.355 28.6019 38.342 28.6448 38.3297H28.6502C28.69 38.3182 28.7268 38.3091 28.7705 38.3014L28.798 38.2953C28.8386 38.2876 28.8792 38.2822 28.9206 38.2784H28.9451C28.9872 38.2746 29.0294 38.2723 29.0715 38.2723H29.096H29.1672H29.2017C29.2232 38.2723 29.2446 38.2723 29.2661 38.2792L29.3013 38.2838L29.3679 38.2953L29.4001 38.3014C29.4323 38.3083 29.4644 38.316 29.4966 38.3251L29.5901 38.3504C29.6513 38.3665 29.7111 38.3811 29.7647 38.3918C29.8393 38.4066 29.9136 38.4196 29.9876 38.4308L30.0642 38.44L30.2128 38.4584C30.2419 38.4584 30.2718 38.4584 30.3009 38.4646C30.3453 38.4684 30.3905 38.4722 30.4342 38.4745H30.5284C30.5705 38.4745 30.6127 38.4745 30.6556 38.4745H30.7076C30.7597 38.4745 30.8118 38.4745 30.8608 38.4699L30.9374 38.4653C30.9811 38.4653 31.0248 38.4592 31.0684 38.4546L31.1504 38.4462C31.1917 38.4408 31.2331 38.4362 31.2737 38.4301L31.3564 38.4171C31.3978 38.4109 31.4384 38.4033 31.479 38.3956L31.5556 38.3795C31.5977 38.3711 31.6399 38.3611 31.6812 38.3504C31.7057 38.3451 31.7302 38.3397 31.7578 38.3328C31.8053 38.3205 31.8536 38.3068 31.9011 38.293L31.9524 38.2776C32.0175 38.2577 32.0811 38.2363 32.1446 38.2133L32.1852 38.198C32.2343 38.1796 32.284 38.1605 32.3331 38.1405L32.3989 38.1114C32.4388 38.0946 32.4755 38.077 32.5177 38.0586L32.5889 38.0241L32.6992 37.969L32.7712 37.9299L32.8777 37.8701L32.9466 37.8288C32.9826 37.8073 33.0186 37.7844 33.0539 37.7614L33.1167 37.7208C33.1565 37.694 33.1933 37.6664 33.2346 37.6381L33.2814 37.6051C33.335 37.5653 33.3878 37.5239 33.4407 37.4818L33.4644 37.4611C33.5081 37.4251 33.551 37.3883 33.5939 37.3508L33.6444 37.3041L33.7417 37.2137L33.7969 37.1578C33.826 37.1287 33.8551 37.0988 33.8834 37.0682L33.9386 37.0084C33.9662 36.9778 33.993 36.9471 34.0198 36.9157C34.0466 36.8843 34.055 36.8751 34.0719 36.8537C34.0887 36.8322 34.1255 36.7878 34.1485 36.7541C34.1638 36.7342 34.1799 36.7143 34.1944 36.6936C34.2235 36.6561 34.2503 36.617 34.2779 36.5779L34.3132 36.5335C34.3514 36.4768 34.3897 36.4194 34.425 36.3611L34.4334 36.3458C34.4663 36.2922 34.4978 36.2386 34.5276 36.1834C34.5391 36.1635 34.5491 36.1428 34.5598 36.1229C34.5812 36.0823 34.6027 36.041 34.6234 35.9996C34.6349 35.9759 34.6456 35.9513 34.6571 35.9276C34.6755 35.8885 34.6931 35.851 34.7107 35.8104L34.7429 35.7338C34.759 35.694 34.7743 35.6572 34.7896 35.6151C34.7996 35.5883 34.8095 35.5622 34.8187 35.5385C34.8333 35.4979 34.847 35.4557 34.8608 35.4144C34.8693 35.3883 34.8777 35.3631 34.8853 35.3378C34.8999 35.2918 34.9122 35.2451 34.9252 35.1976C34.9305 35.1762 34.9374 35.1539 34.9428 35.1317C34.9604 35.062 34.9765 34.9923 34.9911 34.9211C35.001 34.8705 35.0102 34.8192 35.0186 34.7679C35.0248 34.7311 35.0324 34.6951 35.0408 34.6591C35.0661 34.5535 35.1023 34.4508 35.1488 34.3527C35.1945 34.2551 35.2504 34.1626 35.3158 34.077C35.3802 33.991 35.4534 33.9119 35.5341 33.841C35.6426 33.7458 35.7638 33.6662 35.8942 33.6044C35.9271 33.5883 35.9608 33.5737 35.9945 33.5607C36.0282 33.5477 36.0642 33.5347 36.0994 33.5239C36.353 33.4473 36.5322 33.3968 36.5322 33.3968C36.6257 33.386 36.7199 33.3776 36.8133 33.3723H36.8317C36.9213 33.3677 37.0117 33.3654 37.1006 33.3646H37.1305C37.2071 33.3646 37.2898 33.3646 37.3687 33.3707H37.4116C37.4897 33.3753 37.5678 33.3815 37.646 33.3891L37.6843 33.3937C37.7647 33.4029 37.8451 33.4129 37.9248 33.4251H37.9401C38.0167 33.4374 38.0971 33.4527 38.1753 33.4688L38.2013 33.4741C38.2779 33.4902 38.3545 33.5094 38.4311 33.5293L38.4709 33.54C38.5475 33.5599 38.6241 33.5821 38.6946 33.6051L38.7329 33.6181C38.8095 33.6427 38.8861 33.6687 38.9573 33.6947L38.9796 33.7032C39.0561 33.7315 39.1259 33.7614 39.1986 33.7936L39.217 33.8012C39.2936 33.8334 39.3625 33.8679 39.4338 33.9031L39.4698 33.9207C39.5387 33.9559 39.6077 33.9927 39.6751 34.031L39.7118 34.0517C39.7808 34.0915 39.8482 34.1283 39.9156 34.1742L39.9401 34.1903C40.0075 34.234 40.0749 34.2784 40.1408 34.3251L40.15 34.332C40.2166 34.3788 40.2817 34.4286 40.3461 34.4783L40.3759 34.5021C40.4372 34.5511 40.4985 34.6017 40.5575 34.6553L40.5904 34.6836C40.6502 34.7365 40.7092 34.7901 40.7658 34.846L40.7911 34.8705C40.8509 34.9287 40.9098 34.9885 40.9673 35.0505C41.0232 35.1111 41.0814 35.17 41.1412 35.2275L41.2017 35.2834C41.243 35.3217 41.2836 35.36 41.3258 35.396C41.3503 35.4174 41.3763 35.4381 41.4024 35.4588C41.4414 35.4918 41.479 35.5239 41.5211 35.5546C41.5479 35.576 41.5762 35.5967 41.6038 35.6174C41.6314 35.6381 41.6804 35.6756 41.7226 35.7032L41.8114 35.7629C41.8512 35.7897 41.8926 35.8158 41.9332 35.8395L42.0251 35.8947C42.0672 35.9199 42.1101 35.9437 42.153 35.9667L42.245 36.0165C42.2902 36.0402 42.3369 36.0624 42.3828 36.0839C42.4119 36.0984 42.4418 36.113 42.4717 36.126C42.5245 36.1497 42.5782 36.1719 42.6318 36.1934C42.6555 36.2034 42.6793 36.2141 42.7038 36.2233C42.7804 36.2539 42.8608 36.2823 42.9412 36.3083L42.9872 36.3221C43.0531 36.3428 43.1182 36.3619 43.1848 36.3795L43.2744 36.401C43.3273 36.414 43.3802 36.427 43.4338 36.4377C43.4675 36.4454 43.5019 36.4508 43.5356 36.4569C43.5862 36.4661 43.6368 36.4753 43.6888 36.4829L43.7969 36.4975C43.8466 36.5036 43.8972 36.509 43.95 36.5136C43.986 36.5174 44.0266 36.5205 44.0596 36.5228C44.1109 36.5228 44.1615 36.5289 44.2128 36.5304H44.3231C44.3805 36.5304 44.438 36.5304 44.4962 36.5304H44.5782C44.6632 36.5304 44.7497 36.5212 44.8355 36.5128C45.303 36.4677 45.7609 36.352 46.1936 36.1697C46.2633 36.1398 46.333 36.1084 46.4012 36.0754C46.513 36.0218 46.6218 35.9628 46.7283 35.9008C46.8632 35.8219 46.9941 35.7362 47.1205 35.6442L47.2101 35.5775C47.3718 35.4525 47.5253 35.3171 47.6697 35.1723L47.6766 35.1662C47.8867 34.9547 48.0765 34.7239 48.2434 34.4768C48.4104 34.2282 48.5532 33.9643 48.6701 33.6886C48.9716 32.9743 49.0896 32.1959 49.0132 31.4244L49.0155 31.4259Z" fill="white"/>
<path d="M23.2636 48.8655C23.1985 48.8655 23.1326 48.8655 23.0675 48.8655C23.0392 48.8655 23.0116 48.8655 22.984 48.8655C22.8906 48.8617 22.7933 48.8555 22.6983 48.8464C22.6723 48.8464 22.6485 48.8418 22.6217 48.8387C22.5497 48.8318 22.4769 48.8234 22.4049 48.8134L22.3107 48.7996H22.2962C22.2395 48.7912 22.179 48.782 22.1185 48.7705L22.0173 48.7506L21.9852 48.7437L21.832 48.7108L21.7255 48.684L21.7071 48.6794C21.652 48.6656 21.5999 48.6518 21.5478 48.6372L21.4344 48.6035L21.4229 48.5997L21.2697 48.5507L21.1411 48.5055C21.0905 48.4871 21.0399 48.4687 20.9879 48.4488L20.8638 48.399C20.8124 48.3776 20.7634 48.3569 20.7106 48.3347C20.6577 48.3125 20.6271 48.2971 20.5857 48.2772C20.5443 48.2573 20.4884 48.2305 20.4379 48.2052C20.4003 48.1861 20.3613 48.1662 20.3199 48.1447C20.2786 48.1233 20.2203 48.0903 20.1721 48.0627L20.0656 47.99C20.0135 47.9593 19.9653 47.9287 19.9178 47.8981L19.8986 47.8866L19.8075 47.8284C19.76 47.7962 19.7125 47.7632 19.6658 47.7295L19.6412 47.7127C19.6129 47.6935 19.5853 47.6736 19.5578 47.6537C19.5041 47.6139 19.4513 47.5725 19.3984 47.5312L19.3862 47.522C19.3617 47.5028 19.3372 47.4844 19.3134 47.4645C19.2299 47.3971 19.1533 47.3305 19.0782 47.2631C18.2751 46.5471 17.6717 45.6348 17.3271 44.6155C16.9825 43.5962 16.9087 42.5049 17.1127 41.4484C17.1503 41.2493 17.1977 41.0517 17.2537 40.8594C17.3096 40.6671 17.377 40.4718 17.4521 40.2864C17.7255 39.6038 18.1176 38.9749 18.6102 38.4289C18.6746 38.3577 18.7443 38.2841 18.8224 38.2053L18.8622 38.1654C18.9358 38.0924 19.0078 38.0242 19.0782 37.9609L19.1211 37.9226C19.1924 37.8606 19.2613 37.8016 19.331 37.7449L19.3609 37.7211C19.4275 37.6675 19.5041 37.6085 19.5907 37.5465L19.6382 37.512C19.7209 37.4538 19.8006 37.3994 19.8787 37.3496L19.917 37.3251C19.9936 37.2746 20.0748 37.2279 20.1468 37.1842L20.1813 37.1643C20.2625 37.1183 20.346 37.0747 20.4356 37.0287L20.4877 37.0027C20.5796 36.9575 20.6638 36.9184 20.7473 36.8816L20.7879 36.8648C20.8645 36.8311 20.9457 36.7981 21.0285 36.7667L21.0713 36.7499C21.1541 36.7192 21.2406 36.6894 21.3333 36.6595L21.3931 36.6403C21.4896 36.6105 21.5784 36.5852 21.665 36.5637L21.6941 36.5561C21.7753 36.5354 21.8603 36.5155 21.9515 36.4963L22.002 36.4856C22.0924 36.4672 22.1843 36.4504 22.2762 36.4358L22.3329 36.4274L22.4976 36.4044H22.5076L22.601 36.3952H22.6171L22.7083 36.3799C22.7703 36.3745 22.8362 36.3699 22.9074 36.3661H22.9626C23.056 36.3615 23.1495 36.3592 23.2414 36.3585H23.2988C23.3662 36.3585 23.4329 36.3585 23.4988 36.3623H23.5126H23.5654C23.642 36.3661 23.7278 36.3715 23.8098 36.3784L23.8534 36.383C23.9231 36.3891 23.9928 36.3968 24.0618 36.4059L24.1276 36.4144L24.2249 36.4289H24.2364L24.3659 36.4496H24.3827C24.3968 36.4489 24.4109 36.4473 24.4248 36.445H24.4402L24.5014 36.4343H24.5152C24.5397 36.4297 24.5635 36.4236 24.5865 36.4182L24.6018 36.4136L24.6883 36.3899L24.7014 36.386L24.7956 36.3554L24.8209 36.347L24.9166 36.3117L24.9396 36.3033L25.0016 36.2788L25.0499 36.255C24.6211 35.177 24.5147 33.9976 24.7435 32.8602C24.883 32.1704 25.1422 31.5103 25.5095 30.91C25.557 30.8334 25.606 30.7568 25.655 30.6802V30.6741L25.642 30.6603C25.6267 30.6442 25.6091 30.625 25.5914 30.6074L25.56 30.5783C25.544 30.5622 25.5263 30.5461 25.5087 30.5308L25.4773 30.504C25.4574 30.4872 25.4398 30.4734 25.4222 30.4596L25.3854 30.4312L25.331 30.3929L25.2942 30.3684C25.2759 30.3562 25.2536 30.3432 25.2314 30.3301L25.1939 30.3079C25.1369 30.2757 25.0781 30.2468 25.0177 30.2214L24.9802 30.2068L24.9089 30.1792L24.8699 30.167L24.8048 30.1471L24.7634 30.1363L24.6983 30.121L24.6577 30.1126L24.5926 30.1019L24.5497 30.095L24.4823 30.0888H24.4363C24.4003 30.0888 24.3697 30.0888 24.3414 30.0888H24.2977H24.2648H24.2088C24.179 30.0888 24.146 30.0942 24.1146 30.0988C24.048 30.108 23.9806 30.1157 23.9124 30.1225L23.8527 30.1287H23.8435L23.7063 30.1402L23.6435 30.144H23.6137L23.5049 30.1494H23.4283H23.4168H23.2973H23.2337C23.1273 30.1494 23.0292 30.1494 22.935 30.1417H22.9013C22.8086 30.1363 22.7144 30.1287 22.6194 30.1187H22.624L22.5811 30.1141C22.4869 30.1042 22.3911 30.0911 22.2893 30.0751L22.2318 30.0659C22.1361 30.0498 22.0396 30.0314 21.9469 30.0115L21.8978 30.0008C21.701 29.9571 21.5018 29.9027 21.3088 29.8391L21.2644 29.8246C21.1735 29.7939 21.0808 29.7602 20.9863 29.7235L20.9388 29.7043C20.8377 29.6645 20.7481 29.6277 20.6608 29.5864L20.624 29.5687C20.5344 29.5274 20.4463 29.4837 20.362 29.4401L20.336 29.427C20.2517 29.3818 20.1652 29.3336 20.071 29.2777L20.0288 29.2524C19.9392 29.198 19.8542 29.1436 19.7715 29.0885L19.7255 29.0571C19.6359 28.9958 19.5539 28.936 19.4758 28.8771L19.4536 28.8594C19.377 28.7997 19.3004 28.7361 19.2192 28.6702L19.1863 28.6419C19.1097 28.5791 19.0376 28.5109 18.9565 28.4366L18.9166 28.3983C18.84 28.3217 18.7634 28.2497 18.6991 28.1769L18.6631 28.1386C18.5865 28.0528 18.5099 27.9724 18.4486 27.8943C17.8583 27.1849 17.4325 26.3535 17.2019 25.4599C16.9713 24.5663 16.9416 23.6326 17.115 22.7262C17.1707 22.4305 17.2475 22.1392 17.3448 21.8545C17.3778 21.7603 17.413 21.6653 17.4505 21.5718C17.8381 20.6046 18.4614 19.7496 19.2636 19.0847C19.3402 19.0219 19.4168 18.9606 19.5026 18.8962L19.57 18.8472L19.58 18.8403C19.6367 18.799 19.6918 18.7591 19.7477 18.7216L19.8243 18.671L19.8404 18.6603C19.8948 18.6251 19.9469 18.5914 19.9997 18.56C20.0342 18.5385 20.0679 18.5186 20.1024 18.4987C20.1537 18.468 20.2065 18.4382 20.2594 18.4091L20.3605 18.3547C20.4164 18.3256 20.4723 18.298 20.5275 18.2704L20.5421 18.2635L20.6248 18.226C20.6861 18.1977 20.7473 18.1708 20.8078 18.1448L20.8201 18.1394L20.8967 18.108C20.9733 18.0782 21.0499 18.0475 21.1265 18.0192L21.1717 18.0023C21.256 17.9725 21.3494 17.9418 21.4452 17.9135L21.5118 17.8936C21.583 17.8736 21.6527 17.8537 21.7232 17.8361L21.7998 17.817L21.8159 17.8131C21.8756 17.7986 21.9377 17.7848 21.9997 17.7718L22.0978 17.7534H22.1054C22.1644 17.7419 22.2226 17.7319 22.2816 17.7227L22.3919 17.7067C22.4509 17.6982 22.5099 17.6913 22.5689 17.6844H22.5796L22.6792 17.6737C22.7381 17.6684 22.7994 17.6638 22.8615 17.6599H22.8783L22.9626 17.6546C23.0338 17.6546 23.1058 17.6492 23.177 17.6484H23.3226C23.4061 17.6484 23.4873 17.6484 23.5677 17.6553L23.6658 17.6561H23.6841C23.7515 17.6607 23.8205 17.6661 23.8894 17.6729L23.9951 17.6898H24.012C24.0771 17.6975 24.143 17.7059 24.2081 17.7158L24.3306 17.7365C24.3973 17.748 24.4608 17.7603 24.5244 17.7733L24.6485 17.7993L24.8415 17.8468L24.8553 17.8507L24.9595 17.8782C25.0284 17.8981 25.0951 17.9188 25.1617 17.9395L25.1793 17.9449L25.2674 17.974C25.344 18 25.4206 18.0276 25.4972 18.0567L25.5738 18.0851C25.6749 18.1249 25.776 18.1685 25.8726 18.213L25.9162 18.2337C25.9997 18.272 26.0832 18.3103 26.1644 18.3554L26.241 18.3983L26.2525 18.4045C26.3184 18.4405 26.3827 18.4765 26.4463 18.514L26.5344 18.5684L26.5528 18.5791C26.611 18.6151 26.6684 18.6519 26.7259 18.6902L26.8346 18.7668C26.889 18.8051 26.9426 18.8434 26.9963 18.8832C27.0338 18.9108 27.0729 18.9384 27.105 18.9659C27.1564 19.0065 27.2084 19.0487 27.2582 19.0916L27.2682 19.1C27.2996 19.126 27.331 19.1521 27.3616 19.1766C27.4122 19.2202 27.4628 19.2662 27.5148 19.3137L27.5302 19.3275L27.6114 19.4041C27.6642 19.4554 27.7178 19.5106 27.7714 19.5657L27.7806 19.5757C27.8036 19.5986 27.8258 19.6216 27.848 19.6454C27.9078 19.7105 27.9668 19.7764 28.0219 19.8415L28.0273 19.8461L28.074 19.9027C28.0767 19.9059 28.0793 19.9092 28.0817 19.9127L28.1644 20.0146L28.2088 20.0713C28.8635 20.9189 29.29 21.9203 29.4474 22.9797C29.6048 24.0391 29.488 25.1212 29.1081 26.1226C29.0003 26.4041 28.964 26.708 29.0024 27.007C29.0407 27.306 29.1526 27.5909 29.3279 27.8361C29.3716 27.8805 29.4382 27.9464 29.5164 28.0222L29.6198 28.1164H29.6382C29.7194 28.1026 29.8028 28.0904 29.8886 28.0797L29.9652 28.0712H29.9744C30.0319 28.0643 30.0901 28.0582 30.1491 28.0536L30.2349 28.0475H30.2601C30.3107 28.0475 30.362 28.0414 30.4133 28.0398C30.4432 28.0398 30.4769 28.0398 30.5106 28.0398H30.6707C30.7274 28.0398 30.781 28.0398 30.8354 28.0437H30.8591L30.9557 28.0475C31.0185 28.0475 31.0752 28.0551 31.1326 28.0605H31.1472C31.1801 28.0605 31.2138 28.0659 31.2467 28.0697C31.3103 28.0758 31.3747 28.0843 31.439 28.0927H31.4474L31.5347 28.1042C31.6236 28.118 31.7102 28.1325 31.7944 28.1494L31.8235 28.1547C31.9323 28.1769 32.0472 28.2037 32.1736 28.2375C33.5207 28.5919 34.7024 29.4044 35.5156 30.5354L35.5209 30.5415C35.5228 30.5438 35.5248 30.5458 35.5271 30.5477C35.8335 30.5883 36.1399 30.609 36.303 30.6181L36.4248 30.5982C36.4807 30.5875 36.5382 30.576 36.5956 30.563C36.6531 30.55 36.7021 30.5377 36.7542 30.5232C37.0315 30.4473 37.299 30.3396 37.5516 30.2022C38.137 29.8869 38.6216 29.4127 38.9495 28.8342C39.2197 28.3534 39.5525 27.9106 39.9392 27.5174C40.0265 27.4286 40.1184 27.3405 40.2134 27.2547C40.5997 26.9065 41.0281 26.6083 41.4888 26.3669C41.5968 26.3102 41.7094 26.2558 41.8212 26.2053C42.1426 26.0605 42.4757 25.9434 42.817 25.8552C42.8936 25.8361 42.9702 25.8185 43.0429 25.8016C43.1617 25.7756 43.2727 25.7541 43.3846 25.7365C43.514 25.7151 43.6443 25.6982 43.7737 25.6859C43.8779 25.676 43.9828 25.6683 44.087 25.663C44.1176 25.663 44.1498 25.663 44.182 25.663H44.2118C44.2739 25.663 44.3375 25.6584 44.3972 25.663H44.4937H44.5068C44.5749 25.663 44.6385 25.663 44.7021 25.6691C44.7381 25.6691 44.7718 25.6691 44.8063 25.676H44.8369C44.8936 25.676 44.951 25.6836 45.0069 25.6898C45.0414 25.6898 45.0782 25.6974 45.1149 25.702H45.1479L45.3011 25.7227L45.4144 25.7419H45.4328C45.4865 25.7511 45.5416 25.7602 45.5968 25.7717L45.7185 25.7978H45.7277C45.7806 25.81 45.8334 25.8215 45.8855 25.8345L46.0188 25.8698L46.172 25.9134L46.303 25.9548L46.4524 26.0054L46.578 26.0513C46.6293 26.0705 46.6791 26.0904 46.7312 26.1103L46.853 26.1616L46.9977 26.2267L47.0069 26.2313L47.1195 26.2842C47.1678 26.3079 47.2145 26.3324 47.2612 26.3608L47.2781 26.3692L47.3777 26.4221L47.5056 26.4987L47.537 26.5178C47.5684 26.5354 47.599 26.5538 47.6289 26.5722C47.6726 26.5982 47.7132 26.625 47.7545 26.6488L47.7882 26.6702C47.8174 26.6886 47.8457 26.7078 47.874 26.7269C47.9177 26.7568 47.9606 26.7874 48.0035 26.8181L48.0295 26.8365C48.0571 26.8556 48.0847 26.8755 48.1107 26.8954C48.1643 26.9353 48.218 26.9774 48.2708 27.0203L48.3375 27.0724C48.4102 27.1329 48.4838 27.1957 48.5558 27.2608L48.6201 27.3213L48.6285 27.3298C48.676 27.3734 48.7228 27.4171 48.7679 27.4623C48.7894 27.4837 48.8131 27.5075 48.8361 27.532L48.8591 27.555C48.8951 27.5933 48.9319 27.6316 48.9679 27.6699L49.0368 27.7465L49.0606 27.7733C49.0935 27.8108 49.1264 27.8499 49.1586 27.8866C49.1908 27.9234 49.2099 27.9494 49.2352 27.9801L49.2452 27.9923C49.2773 28.0329 49.3103 28.0735 49.3417 28.1149C49.3731 28.1563 49.3907 28.1815 49.4183 28.2145L49.4252 28.2237C49.455 28.265 49.4864 28.3087 49.5163 28.3524L49.586 28.4558L49.5929 28.4665C49.6205 28.5094 49.6488 28.5523 49.6756 28.5959L49.7469 28.7131L49.8235 28.8487L49.8909 28.9728C49.9139 29.0172 49.9384 29.0647 49.9621 29.113C49.9859 29.1612 50.0027 29.1949 50.0226 29.2371C50.0425 29.2792 50.0671 29.3351 50.0885 29.3841C50.11 29.4332 50.1245 29.4661 50.1421 29.5098C50.1597 29.5534 50.1827 29.6109 50.2019 29.663L50.2088 29.6813C50.2226 29.7181 50.2371 29.7579 50.2501 29.7932C50.2632 29.8284 50.2846 29.8928 50.3015 29.9464L50.3106 29.9739C50.3221 30.0092 50.3329 30.0437 50.3436 30.0781C50.3597 30.1302 50.3742 30.1838 50.3888 30.2367L50.3957 30.2643C50.4056 30.2995 50.4156 30.3355 50.4248 30.3723C50.4378 30.4243 50.4501 30.4787 50.4615 30.5324L50.4684 30.563C50.4771 30.5982 50.4848 30.6335 50.4914 30.6687C50.5044 30.7338 50.5152 30.8004 50.5267 30.8679V30.8763C50.532 30.9069 50.5374 30.9376 50.542 30.969C50.5558 31.0624 50.5673 31.1551 50.5764 31.2478C50.5764 31.2577 50.5764 31.2685 50.5764 31.2784C50.6649 32.1915 50.5506 33.1129 50.2418 33.9767C49.933 34.8406 49.4374 35.6256 48.7902 36.2757L48.7687 36.2972C48.5785 36.4861 48.3764 36.6626 48.1636 36.8257C48.1232 36.8563 48.0826 36.8862 48.0418 36.9153C47.8735 37.0385 47.6989 37.1528 47.5186 37.2577C47.3654 37.3481 47.2214 37.4247 47.0797 37.4929C46.9893 37.5358 46.8959 37.5787 46.8017 37.6185C46.2296 37.8602 45.6247 38.0151 45.0069 38.0781L44.9028 38.0873C44.8193 38.0942 44.7327 38.0995 44.6408 38.1041H44.5489H44.5313C44.4547 38.1041 44.3781 38.1041 44.3015 38.1041L44.1521 38.1003C44.0862 38.1003 44.0181 38.0942 43.9506 38.0896C43.8993 38.0896 43.8511 38.0827 43.8028 38.0781C43.7354 38.072 43.6672 38.0643 43.6006 38.0559H43.5822L43.4566 38.039C43.3876 38.0283 43.3202 38.0168 43.2528 38.0046L43.226 37.9992C43.19 37.9931 43.1533 37.9862 43.1173 37.9785C43.0407 37.9632 42.9732 37.9471 42.9035 37.9295L42.8829 37.9249L42.7817 37.8996C42.7051 37.8789 42.624 37.856 42.5305 37.8269L42.4539 37.8023C42.3543 37.7702 42.2471 37.7319 42.1406 37.6913L42.0525 37.6553L42.0426 37.6507C41.9729 37.6231 41.9009 37.5925 41.8304 37.5611L41.7308 37.5143L41.7109 37.5044C41.6489 37.4753 41.5876 37.4454 41.5263 37.414L41.4137 37.3535L41.403 37.3473C41.3463 37.3167 41.2888 37.2845 41.2322 37.2516C41.1916 37.2279 41.151 37.2026 41.1104 37.175C41.056 37.1421 41.0016 37.1068 40.948 37.0716C40.9081 37.0448 40.8714 37.0187 40.83 36.9912C40.7756 36.9536 40.722 36.9146 40.6692 36.8755L40.6592 36.8678C40.6255 36.8433 40.5933 36.8188 40.5604 36.7912C40.5052 36.7491 40.4539 36.7062 40.4018 36.6633L40.3857 36.6495C40.3566 36.6258 40.3275 36.602 40.2999 36.5775C40.2456 36.5308 40.1912 36.4802 40.1368 36.4297L40.1253 36.4197L40.0541 36.3531C39.9851 36.2865 39.9177 36.2183 39.8534 36.1501L39.7906 36.0896L39.7699 36.0628L39.6933 35.9862L39.6764 35.9701C39.6374 35.9326 39.5998 35.8935 39.5508 35.8544L39.5278 35.8338C39.4842 35.7962 39.4413 35.761 39.4007 35.728L39.3731 35.7066C39.3271 35.6706 39.2819 35.6369 39.2406 35.6078L39.2283 35.5986C39.19 35.5718 39.1425 35.5396 39.092 35.5074L39.0713 35.4937C39.0315 35.4684 38.9847 35.44 38.9319 35.4102L38.9081 35.3964C38.8576 35.368 38.8086 35.342 38.7603 35.3198L38.7358 35.3075C38.6822 35.2807 38.6339 35.2577 38.5895 35.2386L38.5742 35.2317C38.5206 35.2087 38.4692 35.1873 38.4164 35.1673L38.3972 35.1597C38.3505 35.1421 38.3007 35.1244 38.244 35.1061L38.2172 35.0976C38.1644 35.0808 38.1123 35.0655 38.064 35.0509L38.0357 35.044C37.9767 35.0287 37.9254 35.0157 37.8779 35.0057L37.8541 35.0011C37.8005 34.9896 37.7469 34.9797 37.6964 34.972L37.6695 34.9674C37.6236 34.9605 37.573 34.9536 37.5163 34.9475L37.4865 34.9437C37.4367 34.9391 37.3823 34.9345 37.3271 34.9314H37.2904C37.2391 34.9314 37.1862 34.9314 37.1372 34.9314H37.1065C37.0476 34.9314 36.9893 34.9314 36.9334 34.9368H36.9166L36.8293 34.9429C36.7641 34.9621 36.6761 34.9881 36.5742 35.0195C36.5627 35.0961 36.5497 35.1605 36.5366 35.2279C36.5175 35.3221 36.496 35.4148 36.4715 35.5136C36.4654 35.5388 36.4578 35.5664 36.4501 35.5902V35.6017C36.4332 35.6645 36.4156 35.728 36.3965 35.7909C36.3888 35.8169 36.3789 35.8468 36.3689 35.8766L36.3643 35.892C36.3459 35.9487 36.3275 36.0046 36.3076 36.0597C36.2938 36.0988 36.2808 36.1363 36.2678 36.1685C36.2463 36.2236 36.2257 36.2773 36.2042 36.3301C36.1897 36.3646 36.1743 36.4014 36.159 36.4366C36.1383 36.4856 36.1138 36.5385 36.0885 36.5898L36.0809 36.6059C36.0679 36.635 36.0541 36.6641 36.0403 36.6924C36.0135 36.746 35.9844 36.802 35.9545 36.8579L35.9507 36.8655C35.9384 36.89 35.9254 36.9146 35.9124 36.9383C35.8733 37.0088 35.8358 37.0785 35.7929 37.1459L35.7707 37.1819C35.7239 37.2585 35.6749 37.3351 35.6175 37.4117C35.6052 37.4308 35.5899 37.4523 35.5746 37.4737L35.5692 37.4806C35.5324 37.5335 35.4926 37.5863 35.4566 37.6377L35.403 37.7074L35.393 37.7196C35.3586 37.764 35.3226 37.81 35.2858 37.8544L35.2161 37.9372C35.1793 37.9801 35.1395 38.0222 35.105 38.0635C35.0813 38.0904 35.0568 38.1164 35.0322 38.1401C34.9924 38.1823 34.9556 38.2236 34.912 38.2642L34.9082 38.2681C34.8859 38.291 34.863 38.314 34.84 38.3362C34.794 38.3807 34.7504 38.422 34.7052 38.4626L34.699 38.4688L34.6431 38.5201C34.5857 38.5714 34.5305 38.6181 34.4746 38.6641L34.4317 38.7001C34.3628 38.756 34.2908 38.8119 34.2172 38.8663L34.159 38.9077L34.1521 38.9123C34.1 38.9498 34.0472 38.9889 33.9936 39.0233L33.917 39.0739L33.9062 39.0808C33.8626 39.1091 33.8136 39.1398 33.7645 39.1696L33.6703 39.2255C33.6251 39.2524 33.5769 39.2799 33.5271 39.3067L33.4336 39.3573C33.3823 39.3841 33.3325 39.4086 33.2804 39.4339L33.2643 39.4416C33.2375 39.4553 33.2107 39.4684 33.1832 39.4806C33.1288 39.5067 33.0751 39.5296 33.0215 39.5534L33.0085 39.5588L32.9319 39.5917C32.8699 39.617 32.8063 39.6422 32.7419 39.6683L32.6807 39.6913C32.5933 39.7227 32.5068 39.7518 32.4195 39.7794L32.3475 39.8C32.2831 39.8194 32.218 39.8378 32.1521 39.8552L32.0702 39.8751L32.0549 39.8789C31.9987 39.8927 31.942 39.9057 31.8848 39.918L31.773 39.9402C31.7224 39.9502 31.6665 39.9601 31.6098 39.9693L31.498 39.9862C31.4428 39.9946 31.3869 40.0015 31.3318 40.0076H31.3226C31.2881 40.0122 31.2536 40.016 31.2184 40.0191C31.1609 40.0245 31.102 40.0291 31.0422 40.0329H31.0292L30.9411 40.039C30.8722 40.039 30.804 40.0436 30.7358 40.0452H30.65C30.6056 40.0452 30.5589 40.0452 30.5122 40.0452H30.467H30.359L30.2058 40.0344H30.1613L30.0556 40.026C29.9959 40.0199 29.9346 40.0122 29.8741 40.0038H29.8511C29.8189 40.0038 29.7868 39.9961 29.7538 39.9915C29.6565 39.977 29.5547 39.9594 29.4551 39.9394C29.4053 39.9295 29.3547 39.918 29.2965 39.9034H29.2414L29.0828 39.8506C29.0614 40.0523 29.0794 40.2562 29.1357 40.4511C29.1441 40.4802 29.1533 40.5086 29.1632 40.5377C29.2084 40.6656 29.2498 40.7981 29.2873 40.9306C29.6503 42.2287 29.5847 43.6092 29.1004 44.867C29.0338 45.0409 28.9595 45.211 28.8814 45.3711C28.8186 45.4982 28.7511 45.6246 28.6807 45.7472C28.4622 46.1234 28.2055 46.4761 27.9147 46.7996C27.8419 46.8801 27.7653 46.9613 27.6849 47.0409L27.6137 47.1099L27.5999 47.1229C27.5485 47.1719 27.498 47.2209 27.4467 47.2684C27.4214 47.2914 27.393 47.3159 27.3639 47.3404L27.3379 47.3626C27.2919 47.4025 27.2467 47.4392 27.2 47.4791C27.1694 47.5036 27.1395 47.5273 27.1089 47.5503L27.0813 47.5717C27.0353 47.6078 26.9886 47.6438 26.9411 47.6782C26.9066 47.7035 26.8706 47.728 26.8346 47.7548L26.8232 47.7632C26.7772 47.7947 26.7274 47.8291 26.6776 47.8621L26.5604 47.9387C26.5053 47.9731 26.4547 48.0038 26.4072 48.0329C26.3597 48.062 26.3222 48.0819 26.2793 48.1049C26.2364 48.1279 26.179 48.1593 26.1261 48.1861C26.0733 48.2129 26.0365 48.2305 25.9921 48.2519C25.9476 48.2734 25.8925 48.3002 25.8389 48.3232L25.7048 48.3822C25.6535 48.4036 25.5999 48.4258 25.5455 48.4465C25.4911 48.4672 25.4574 48.481 25.4137 48.4971C25.3701 48.5132 25.305 48.5354 25.2513 48.5537L25.233 48.5599C25.1939 48.5729 25.1564 48.5859 25.1158 48.5974C25.0598 48.615 25.0032 48.6311 24.9472 48.6464L24.9258 48.6526L24.8178 48.6824C24.7626 48.6962 24.7098 48.7085 24.6569 48.72L24.6179 48.7292L24.5122 48.7521C24.4509 48.7652 24.3911 48.7751 24.3306 48.7858L24.3038 48.7904L24.205 48.8073C24.1284 48.8188 24.0518 48.828 23.9752 48.8372L23.8986 48.8464C23.796 48.8571 23.6918 48.8647 23.5922 48.8701H23.5049C23.4283 48.8701 23.3563 48.8747 23.282 48.8755L23.2636 48.8655ZM23.1104 45.725H23.1602H23.2644C23.3019 45.725 23.341 45.725 23.3754 45.725H23.4321C23.475 45.725 23.5179 45.7188 23.56 45.715L23.6045 45.7096C23.6466 45.7043 23.6857 45.7004 23.724 45.6943L23.8006 45.6813L23.8841 45.6667L23.966 45.6476L24.035 45.6315L24.0725 45.6215L24.1016 45.6131L24.1851 45.5894L24.2356 45.5725L24.2533 45.5664L24.3299 45.5396L24.3965 45.5135C24.4225 45.5036 24.4478 45.4936 24.4731 45.4821L24.5397 45.453L24.6163 45.417L24.6815 45.3841C24.7067 45.3718 24.732 45.358 24.758 45.3443C24.7841 45.3305 24.8002 45.3213 24.8201 45.309C24.84 45.2968 24.8699 45.2799 24.8967 45.2646L24.9572 45.2263C24.9817 45.211 25.0055 45.1941 25.0292 45.1773L25.0476 45.165L25.0897 45.1351C25.1119 45.1191 25.1341 45.1014 25.1556 45.0846L25.2169 45.0379L25.2812 44.9827L25.3425 44.9306C25.3662 44.9092 25.3908 44.8854 25.4153 44.8617L25.4206 44.8556L25.4612 44.8173L25.4658 44.8127C25.5057 44.7728 25.5424 44.7361 25.5754 44.697C25.7208 44.5355 25.8492 44.3595 25.9584 44.1715C25.9936 44.1103 26.0273 44.0474 26.0579 43.9846C26.0955 43.908 26.1345 43.8245 26.1659 43.7357C26.2828 43.4335 26.3513 43.1148 26.3689 42.7912C26.3884 42.4481 26.3511 42.1042 26.2586 41.7732C26.2402 41.7073 26.2196 41.6407 26.1966 41.5764C26.1667 41.4898 26.1391 41.404 26.1146 41.319C25.9518 40.7576 25.8957 40.1707 25.9492 39.5886V39.4117L25.9867 39.2976L25.9936 39.2585C25.943 39.2776 25.8917 39.296 25.8404 39.3136L25.7998 39.3274C25.7477 39.345 25.688 39.365 25.629 39.3826L25.5991 39.3918C25.5332 39.4117 25.4674 39.4308 25.4015 39.4477L25.3563 39.4599C25.2866 39.4768 25.2169 39.4936 25.1472 39.5082L25.1089 39.5159C25.043 39.5289 24.9802 39.5396 24.9181 39.5496L24.8745 39.5565C24.804 39.5664 24.7282 39.5748 24.6516 39.5817L24.598 39.5856C24.5357 39.5902 24.4767 39.5932 24.421 39.5948H24.2985C24.2418 39.5948 24.1851 39.5909 24.1253 39.5871L24.0656 39.5817L23.989 39.5741H23.724L23.616 39.5205L23.5547 39.5136H23.5279C23.4888 39.5136 23.4513 39.5074 23.4091 39.5059H23.3777H23.2812H23.246C23.2054 39.5059 23.1587 39.5059 23.1119 39.5097H23.0882H23.0399L22.9764 39.5205H22.8714L22.7994 39.5304L22.7642 39.5358C22.7244 39.5419 22.6792 39.5503 22.634 39.5595L22.6133 39.5641C22.5635 39.5741 22.5198 39.584 22.4762 39.5955L22.4578 39.6001C22.4141 39.6116 22.3712 39.6246 22.3291 39.6376L22.2992 39.6476C22.2579 39.6606 22.2142 39.6752 22.1713 39.6913L22.1476 39.7005C22.1062 39.7165 22.0648 39.7326 22.0242 39.7502L22.0005 39.7602C21.9591 39.7786 21.9185 39.7977 21.8787 39.8177L21.8519 39.8314C21.8113 39.8521 21.7753 39.8728 21.7324 39.8943L21.7094 39.908C21.6719 39.9295 21.6328 39.9532 21.5953 39.977L21.57 39.9923C21.5317 40.0176 21.4934 40.0436 21.4566 40.0689L21.4275 40.0903C21.3908 40.1172 21.3509 40.144 21.3226 40.1669C21.3173 40.1717 21.3117 40.1761 21.3057 40.18C21.2697 40.2098 21.2345 40.2405 21.1993 40.2711L21.174 40.2933C21.1441 40.3201 21.1073 40.3546 21.0706 40.3914L21.0491 40.4128C21.0078 40.4542 20.9725 40.4894 20.9434 40.5247C20.699 40.7949 20.504 41.106 20.3674 41.4438C20.3299 41.5365 20.2969 41.633 20.2686 41.7296C20.2403 41.8261 20.2173 41.9241 20.1989 42.0229C20.0957 42.5505 20.1316 43.0958 20.3031 43.6052C20.4746 44.1146 20.7758 44.5706 21.1771 44.9283C21.2123 44.9597 21.2491 44.9911 21.2904 45.0248L21.3364 45.0608C21.3663 45.0838 21.3915 45.1045 21.4176 45.1237L21.4766 45.165L21.5432 45.211L21.5976 45.2454C21.6213 45.2608 21.6466 45.2769 21.6742 45.2914C21.6872 45.2998 21.7041 45.309 21.7209 45.3182L21.7278 45.322L21.8044 45.3642L21.8626 45.394L21.9339 45.4293L21.9967 45.4576L22.0733 45.4906L22.1315 45.5143L22.2081 45.5426L22.2701 45.5649L22.3467 45.5894H22.3582L22.4095 45.6047L22.4861 45.6254L22.5114 45.6323L22.5474 45.6415L22.6186 45.6568L22.6952 45.6713C22.7228 45.6767 22.7527 45.6805 22.7818 45.6851L22.8438 45.6951C22.8753 45.6997 22.912 45.7035 22.9496 45.7073L22.9955 45.7119C23.0315 45.7188 23.0721 45.725 23.1119 45.725H23.1104ZM30.4984 36.9092H30.6002H30.6768C30.7167 36.9092 30.7534 36.9092 30.7825 36.9092H30.8277L30.9158 36.9023L30.9587 36.8977H30.9679L31.0483 36.8878L31.1012 36.8793C31.1272 36.8755 31.1525 36.8709 31.1778 36.8655L31.2329 36.8548C31.2582 36.8495 31.285 36.8433 31.3095 36.8364L31.3586 36.8249C31.39 36.8173 31.4198 36.8081 31.4497 36.7989L31.4934 36.7866C31.5271 36.7759 31.5623 36.7644 31.5976 36.7514L31.629 36.7399C31.6665 36.7261 31.6979 36.7139 31.7293 36.7009L31.7722 36.6817C31.799 36.6702 31.8251 36.6595 31.8488 36.6472L31.8948 36.6243C31.9162 36.6143 31.94 36.602 31.9629 36.5898L32.0127 36.5637L32.0778 36.5262L32.1261 36.4986L32.1935 36.4557L32.2341 36.4289C32.2617 36.4113 32.2869 36.3929 32.3107 36.3745L32.3459 36.3493H32.3406C32.3712 36.327 32.4018 36.3033 32.4325 36.2788L32.4578 36.2573C32.4869 36.2336 32.5152 36.2099 32.5428 36.1853L32.5734 36.157C32.5987 36.134 32.6194 36.1149 32.6393 36.095L32.6715 36.0628C32.6937 36.0406 32.7113 36.0222 32.7289 36.003C32.7465 35.9839 32.7534 35.977 32.7649 35.964C32.7764 35.9509 32.8009 35.9241 32.8178 35.9042L32.8522 35.8636C32.8691 35.8429 32.8859 35.8215 32.902 35.8L32.9327 35.761C32.9518 35.7357 32.9694 35.7104 32.9871 35.6844L33.0108 35.6507V35.656C33.0346 35.6208 33.056 35.5879 33.0767 35.5542L33.0889 35.5343C33.1096 35.4998 33.1295 35.4661 33.1479 35.4324L33.1701 35.3895C33.1855 35.3619 33.1992 35.3359 33.2115 35.3129L33.2337 35.2662C33.2444 35.2432 33.2559 35.2187 33.2666 35.1896C33.2774 35.1605 33.282 35.1536 33.2881 35.1375C33.2942 35.1214 33.3095 35.0846 33.3195 35.0609C33.3295 35.0371 33.3325 35.0272 33.3386 35.0096C33.3448 34.9919 33.3563 34.959 33.3647 34.933L33.3808 34.8839C33.3907 34.8502 33.3984 34.8211 33.4068 34.7912L33.4198 34.7438C33.4321 34.6955 33.4413 34.6526 33.4497 34.6112C33.4581 34.5699 33.4627 34.5446 33.4681 34.5109C33.4796 34.4435 33.4941 34.37 33.511 34.2972C33.598 33.9306 33.7503 33.5826 33.9606 33.27C33.8474 33.2046 33.7381 33.1325 33.6336 33.054C33.4631 32.925 33.306 32.7793 33.1648 32.6189C33.0951 32.5423 33.0277 32.455 32.9648 32.3684C32.5774 31.8292 32.0143 31.4417 31.3724 31.2723C31.3095 31.2562 31.259 31.244 31.213 31.234H31.2015L31.0713 31.211L31.0162 31.2041C30.9863 31.2003 30.9557 31.1957 30.925 31.1926L30.8722 31.1888L30.7841 31.1819H30.7274H30.6508H30.5305H30.4585L30.4018 31.1857C30.3766 31.1857 30.349 31.1911 30.3214 31.1942L30.2716 31.1988L30.1583 31.2156C30.0817 31.2286 30.0051 31.2386 29.9185 31.247L29.8603 31.2516C29.7745 31.2577 29.6964 31.2616 29.6205 31.2616H29.5639C29.4987 31.2616 29.4321 31.2562 29.3616 31.2508L29.3042 31.2455C29.2276 31.2378 29.1418 31.2263 29.0598 31.2118H29.0522L29.0078 31.2034C28.9312 31.1888 28.866 31.1727 28.8002 31.1551L28.7711 31.1474C28.7484 31.2967 28.7148 31.4442 28.6707 31.5886C28.6242 31.7345 28.5669 31.8766 28.4991 32.0138C28.4312 32.1559 28.3526 32.2926 28.264 32.4228C28.2379 32.4619 28.2119 32.4994 28.1874 32.5415C28.1139 32.6614 28.0497 32.7866 27.9951 32.9161C27.7017 33.6115 27.6926 34.3941 27.9698 35.0961C28.1906 35.65 28.2467 36.256 28.1315 36.841L28.1897 36.8234L28.2663 36.8012C28.3306 36.7843 28.3965 36.769 28.467 36.7552L28.5114 36.7468C28.588 36.7323 28.673 36.72 28.7565 36.7116L28.8124 36.707C28.8699 36.7016 28.9281 36.6986 28.9855 36.697H29.0009H29.1334C29.1755 36.697 29.2153 36.697 29.2559 36.7016L29.3157 36.7062H29.3279C29.3693 36.71 29.4107 36.7139 29.452 36.7192L29.5217 36.7284L29.6588 36.7522H29.7109L29.9216 36.8119L29.9629 36.8226L29.9813 36.828C30.0127 36.8357 30.0426 36.8441 30.0702 36.8495C30.1146 36.8586 30.1606 36.8663 30.2058 36.8732L30.2624 36.8809H30.2847C30.3069 36.8809 30.3291 36.8878 30.3521 36.8901L30.4516 36.8969L30.4984 36.9092ZM31.4941 36.782H31.4873H31.4941ZM43.5814 34.8632L43.6481 34.8793C43.6795 34.887 43.7155 34.8962 43.7523 34.9031L43.8197 34.9161L43.9185 34.933L43.9752 34.9398H43.992L44.0878 34.9506L44.1644 34.9567C44.1958 34.9567 44.2295 34.9605 44.2639 34.9613H44.3405H44.4539H44.5144C44.5673 34.9613 44.6171 34.9559 44.663 34.9513L44.7503 34.9421C45.0368 34.9083 45.3171 34.8343 45.583 34.7223C45.6289 34.7032 45.6749 34.6825 45.7193 34.661C45.7852 34.6289 45.8557 34.5913 45.9361 34.5446C46.0165 34.4979 46.113 34.4343 46.195 34.3745L46.2563 34.3294C46.3642 34.2472 46.4666 34.1578 46.5627 34.062L46.5795 34.0444C46.7146 33.9074 46.8366 33.7581 46.9441 33.5986C47.0551 33.4341 47.1498 33.2591 47.2268 33.0762C47.2852 32.9381 47.3336 32.7961 47.3715 32.6511C47.4597 32.309 47.4882 31.9542 47.4558 31.6024V31.5664C47.4512 31.5228 47.4458 31.476 47.439 31.4301L47.429 31.3719C47.4229 31.3343 47.4175 31.3029 47.4114 31.2715L47.3945 31.1949C47.3892 31.1704 47.3838 31.1459 47.3777 31.1183L47.3585 31.0479C47.3516 31.0233 47.3455 30.9996 47.3386 30.9759C47.3317 30.9521 47.3302 30.9506 47.3264 30.9383L47.3164 30.9085C47.3095 30.8855 47.3011 30.861 47.2927 30.8319L47.275 30.7851L47.2674 30.7652L47.2383 30.6886C47.2306 30.671 47.2222 30.6511 47.213 30.6319C47.2038 30.6128 47.1908 30.5798 47.1793 30.5553C47.1678 30.5308 47.1601 30.5155 47.1509 30.4956L47.1149 30.4259C47.1035 30.4029 47.0927 30.3837 47.082 30.3646C47.0713 30.3455 47.0567 30.3194 47.0422 30.2964C47.0276 30.2734 47.0192 30.2566 47.0062 30.2367C46.9931 30.2168 46.9794 30.1946 46.964 30.1716C46.9526 30.1547 46.9418 30.1379 46.9296 30.121C46.9173 30.1042 46.8997 30.0781 46.8851 30.0574L46.8752 30.0452C46.8652 30.0306 46.8553 30.0168 46.8445 30.0031L46.7994 29.9456L46.781 29.9226L46.7542 29.8897C46.7411 29.8736 46.7258 29.8567 46.7113 29.8399L46.6576 29.7794L46.6132 29.7334L46.5565 29.6744L46.4945 29.6162L46.4891 29.6109L46.4485 29.5726C46.4187 29.5458 46.3873 29.519 46.3558 29.496L46.313 29.4615L46.2364 29.4002L46.1751 29.3566L46.1184 29.316L46.0518 29.2731L45.9966 29.2378C45.9872 29.2317 45.9775 29.2261 45.9675 29.221L45.9292 29.1988L45.8733 29.1658L45.8334 29.1451L45.8135 29.1344L45.7438 29.0992L45.6894 29.0731H45.6818L45.6105 29.0402L45.5523 29.0165L45.4757 28.9866L45.4122 28.9636L45.3394 28.9391L45.2766 28.9192L45.2 28.897C45.1778 28.8908 45.1571 28.8847 45.1356 28.8801L45.059 28.861H45.0506L44.997 28.8495C44.9686 28.8433 44.9426 28.8395 44.9158 28.8349L44.892 28.8303L44.8484 28.8234L44.7787 28.8142L44.7021 28.805L44.6255 28.7997L44.5489 28.7936C44.5236 28.7936 44.493 28.7936 44.4631 28.7936H44.3942H44.3176H44.2953H44.2425H44.2371C44.1858 28.7936 44.136 28.7997 44.0839 28.8043C44.0204 28.8112 43.9545 28.8196 43.8901 28.8296C43.8258 28.8395 43.7814 28.8487 43.7208 28.8625L43.609 28.8885C43.4407 28.932 43.2764 28.9899 43.118 29.0617C43.0629 29.0862 43.0077 29.113 42.9541 29.1383C42.726 29.2576 42.5139 29.4053 42.3229 29.5779C42.2747 29.6208 42.2287 29.6645 42.1866 29.7081C41.994 29.904 41.8281 30.1245 41.6933 30.3638C41.2476 31.1562 40.6434 31.8482 39.9185 32.3968C39.9859 32.4274 40.0564 32.4611 40.1322 32.4986L40.1789 32.5216C40.2685 32.5676 40.3582 32.6151 40.4463 32.6649L40.496 32.6932C40.5872 32.7453 40.6737 32.7974 40.7565 32.8464L40.7879 32.8671C40.8783 32.9245 40.9656 32.9835 41.0476 33.0417L41.0621 33.0517C41.1387 33.1076 41.2237 33.1696 41.3133 33.2401L41.3532 33.2715C41.4298 33.3313 41.5064 33.3979 41.5883 33.4669L41.6259 33.4998C41.7117 33.5764 41.7852 33.6438 41.8557 33.7127L41.8886 33.7457C41.9652 33.8223 42.0311 33.8874 42.0939 33.9548L42.1667 34.0314L42.2272 34.0919L42.2739 34.1348C42.2992 34.1585 42.3267 34.1838 42.3551 34.2114L42.4056 34.2535C42.4317 34.275 42.4577 34.2972 42.4822 34.3179L42.5236 34.3485L42.5374 34.3585C42.5642 34.3784 42.5895 34.3975 42.614 34.4151L42.673 34.455C42.6998 34.4726 42.7266 34.4902 42.7542 34.5071C42.7817 34.5239 42.794 34.5323 42.8147 34.5438C42.8354 34.5553 42.8714 34.576 42.8997 34.5913L42.9135 34.599L42.961 34.625L43.0529 34.6695L43.1127 34.6986C43.1456 34.7131 43.1808 34.7277 43.2161 34.7415L43.2682 34.7629H43.2743C43.3179 34.7798 43.3631 34.7958 43.4068 34.8104L43.4505 34.8234C43.4995 34.8395 43.5416 34.8518 43.5814 34.8632ZM29.5953 28.1026H29.5999H29.5953ZM24.3375 26.9399C24.4356 26.9399 24.5344 26.9399 24.6439 26.9498C24.6738 26.9498 24.706 26.9544 24.7381 26.9575H24.7466C24.8086 26.9621 24.8768 26.969 24.945 26.9774L25.0468 26.992H25.0606C25.1211 27.0011 25.1824 27.0111 25.2437 27.0226L25.3593 27.0463C25.4214 27.0594 25.4796 27.0732 25.5378 27.0885C25.5769 27.0984 25.6144 27.1076 25.652 27.1183C25.7148 27.136 25.7745 27.1543 25.8343 27.1735L25.845 27.1773L25.8695 27.185C25.8078 26.4441 25.9125 25.6987 26.1759 25.0035C26.3653 24.5049 26.4238 23.9662 26.3458 23.4386C26.2677 22.9111 26.0557 22.4124 25.7301 21.9901L25.7025 21.9556L25.6106 21.8637L25.5815 21.8123C25.5715 21.8024 25.5623 21.7917 25.5524 21.7809L25.5072 21.735C25.4827 21.7082 25.4566 21.6814 25.4306 21.6584L25.3823 21.6132C25.3578 21.5902 25.3325 21.5665 25.3057 21.5443C25.2912 21.5312 25.2774 21.5205 25.2636 21.509L25.2529 21.4998C25.2284 21.4791 25.2031 21.4585 25.1763 21.4385L25.1211 21.3972L25.0445 21.3397L24.9917 21.3037C24.9633 21.2846 24.935 21.267 24.9059 21.2493L24.8523 21.2156C24.8232 21.1988 24.791 21.1804 24.758 21.1628L24.7083 21.1352L24.5819 21.0732L24.5459 21.0601C24.5076 21.0425 24.4693 21.0249 24.4225 21.0081L24.3758 20.9904C24.3375 20.9759 24.2992 20.9613 24.2617 20.9491L24.2088 20.9322C24.1751 20.9215 24.1414 20.9108 24.1077 20.9016L24.0656 20.8901L24.0487 20.8855L23.9507 20.861L23.8955 20.848L23.7944 20.8304L23.7339 20.8204L23.6343 20.8074H23.6121L23.5738 20.8028L23.4704 20.7951L23.4099 20.7905H23.2919H23.2153C23.1786 20.7905 23.1388 20.7905 23.1066 20.7905H23.0576L22.9664 20.7974L22.912 20.8028C22.8821 20.8028 22.8523 20.8097 22.8232 20.8143L22.7672 20.8219L22.6807 20.8372L22.6278 20.8472C22.5972 20.8533 22.5666 20.861 22.5367 20.8679L22.4877 20.8794C22.4532 20.8878 22.4187 20.8978 22.3843 20.9077L22.3414 20.92C22.3015 20.9322 22.2648 20.9445 22.2272 20.9575L22.1966 20.9682L22.0786 21.0134L22.0365 21.0326C22.0059 21.0448 21.976 21.0578 21.9453 21.0724L21.8971 21.0961L21.8182 21.1367L21.7669 21.1643L21.6903 21.2087L21.6389 21.2386L21.5623 21.2892L21.5149 21.3198C21.4865 21.339 21.4589 21.3596 21.4314 21.3796L21.3885 21.4102C21.3448 21.4431 21.3073 21.473 21.272 21.5014C21.1097 21.6367 20.9611 21.7879 20.8285 21.9525C20.6374 22.1901 20.4826 22.4547 20.3689 22.7377C20.3498 22.7852 20.3322 22.8319 20.3168 22.8786C20.102 23.4989 20.0883 24.1712 20.2778 24.7997C20.3978 25.1975 20.5968 25.5669 20.863 25.8859C20.8936 25.9226 20.9289 25.9625 20.9718 26.0092L20.9879 26.0276C21.0246 26.0674 21.0645 26.1042 21.1005 26.1425L21.1188 26.1593C21.161 26.1992 21.1954 26.2359 21.2314 26.262L21.2483 26.2758C21.2912 26.3125 21.3303 26.3439 21.3686 26.3738L21.3869 26.3876C21.4183 26.4113 21.4574 26.4397 21.5018 26.4696L21.5271 26.4872C21.5654 26.5132 21.6075 26.54 21.6497 26.5638L21.6688 26.5753C21.7186 26.6051 21.76 26.6281 21.7975 26.6519L21.8121 26.6595C21.8557 26.6825 21.9009 26.7047 21.9484 26.7262L21.9714 26.7376L22.1008 26.7928L22.1276 26.8028C22.1744 26.8211 22.2211 26.838 22.2648 26.8525L22.2885 26.8602C22.3835 26.8916 22.4831 26.9192 22.5826 26.9414L22.611 26.9475C22.6531 26.9567 22.7006 26.9651 22.7489 26.9736H22.7749C22.8285 26.982 22.8745 26.9889 22.9181 26.9935H22.9488C22.9901 26.9973 23.0392 27.0019 23.0874 27.0042H23.1089C23.1525 27.0042 23.1977 27.0042 23.2491 27.0042H23.2828H23.3425H23.3877H23.4367H23.4865L23.5539 26.9981H23.5861L23.6872 26.9866C23.7944 26.9713 23.904 26.9606 24.0127 26.9529L24.1284 26.9483H24.1506C24.2119 26.9422 24.2785 26.9399 24.3375 26.9399ZM22.2211 20.9598H22.2157H22.2211ZM21.138 18.0115H21.1326H21.138Z" fill="white"/>
<path d="M49.9301 31.337C49.7952 29.9595 49.1529 28.6815 48.1281 27.7513C47.1032 26.821 45.7692 26.3051 44.3851 26.3037C44.2028 26.3037 44.0182 26.3129 43.8359 26.3305C42.9424 26.4184 42.0832 26.7206 41.3314 27.2115C40.5795 27.7024 39.9572 28.3674 39.5173 29.1501C39.1863 29.7256 38.7262 30.2165 38.1733 30.584C37.6203 30.9516 36.9896 31.1857 36.3308 31.268C36.1837 31.2604 35.8183 31.2389 35.4407 31.1914C35.3501 31.1782 35.2632 31.1466 35.1853 31.0987C35.1073 31.0508 35.0399 30.9875 34.9872 30.9126C34.1981 29.8129 33.0208 29.054 31.6935 28.7893C31.0496 28.6588 30.3872 28.6482 29.7394 28.7579C29.6992 28.7649 29.6585 28.7685 29.6176 28.7686C29.4545 28.7704 29.2968 28.7102 29.1764 28.6001C29.0232 28.4546 28.8892 28.3205 28.831 28.2608C28.58 27.9261 28.4179 27.5333 28.3596 27.119C28.3013 26.7048 28.3489 26.2825 28.4978 25.8916C28.9229 24.774 28.9796 23.5498 28.6595 22.3978C28.3394 21.2458 27.6593 20.2263 26.7186 19.4882C25.7778 18.7502 24.6258 18.3323 23.4307 18.2956C22.2356 18.2589 21.06 18.6053 20.0758 19.2842C19.0915 19.9631 18.3502 20.939 17.96 22.0692C17.5698 23.1994 17.5512 24.4248 17.9069 25.5663C18.2627 26.7078 18.9741 27.7057 19.9373 28.4141C20.9005 29.1225 22.065 29.5044 23.2607 29.504C23.5151 29.5037 23.7692 29.4866 24.0213 29.4527C24.1257 29.4382 24.2309 29.4311 24.3362 29.4312C24.6978 29.4348 25.0541 29.518 25.3799 29.6748C25.7057 29.8317 25.993 30.0584 26.2213 30.3389C26.2852 30.4432 26.3177 30.5638 26.3147 30.6861C26.3117 30.8084 26.2734 30.9272 26.2044 31.0283C25.713 31.7529 25.4062 32.5868 25.3109 33.4571C25.2156 34.3275 25.3346 35.2079 25.6575 36.0218C25.7184 36.1806 25.7146 36.3569 25.647 36.513C25.5795 36.6691 25.4534 36.7924 25.2959 36.8567C24.7758 37.0719 24.4802 37.1041 24.3507 37.1041C24.3194 37.1045 24.2882 37.1022 24.2573 37.0972C23.317 36.9279 22.349 37.0015 21.4451 37.311C20.5412 37.6205 19.7313 38.1557 19.0922 38.8659C18.4307 39.6019 17.9759 40.4999 17.774 41.4687C17.572 42.4374 17.6302 43.4424 17.9425 44.3814C18.2549 45.3204 18.8103 46.16 19.5522 46.8147C20.2942 47.4695 21.1963 47.9162 22.1669 48.1093C23.1375 48.3025 24.1418 48.2352 25.078 47.9143C26.0141 47.5935 26.8486 47.0305 27.4966 46.2826C28.1446 45.5347 28.5831 44.6286 28.7674 43.6563C28.9517 42.6841 28.8754 41.6803 28.546 40.7471C28.4348 40.432 28.3965 40.0957 28.4342 39.7636C28.4526 39.6067 28.5274 39.4619 28.6446 39.3561C28.7618 39.2502 28.9136 39.1906 29.0715 39.1884C29.13 39.1883 29.1883 39.1963 29.2446 39.2121C29.3702 39.2481 29.4805 39.2749 29.5801 39.2948C30.2701 39.4345 30.9808 39.4368 31.6717 39.3014C32.3625 39.166 33.0198 38.8957 33.6061 38.506C34.1923 38.1162 34.6959 37.6146 35.088 37.03C35.4801 36.4453 35.753 35.789 35.8911 35.0988C35.9033 35.0375 35.9148 34.9762 35.9248 34.9157C35.9436 34.7959 35.9955 34.6838 36.0747 34.592C36.1539 34.5003 36.2572 34.4325 36.3729 34.3963C36.5161 34.3511 36.6349 34.3197 36.7038 34.2975C36.8417 34.2845 36.9811 34.2776 37.119 34.2776C37.7159 34.281 38.3058 34.407 38.8521 34.6477C39.3984 34.8885 39.8894 35.2388 40.2948 35.6771C40.8167 36.2373 41.4481 36.6844 42.1498 36.9906C42.8516 37.2968 43.6088 37.4556 44.3744 37.4572C44.5567 37.4572 44.7413 37.448 44.9236 37.4304C46.3956 37.2859 47.7499 36.5628 48.6887 35.4199C49.6276 34.2771 50.0741 32.8082 49.9301 31.3362V31.337ZM48.6724 33.6909C48.5555 33.9666 48.4127 34.2305 48.2457 34.4791C48.0788 34.7261 47.889 34.9569 47.6789 35.1685L47.672 35.1746C47.5276 35.3194 47.3741 35.4547 47.2124 35.5798L47.1228 35.6464C46.9964 35.7385 46.8655 35.8241 46.7306 35.903C46.6241 35.9651 46.5153 36.0241 46.4035 36.0777C46.3353 36.1106 46.2656 36.142 46.1959 36.1719C45.7632 36.3543 45.3053 36.47 44.8378 36.5151V36.5151C44.752 36.5235 44.6655 36.5296 44.5805 36.5327H44.4985C44.4587 36.5327 44.4219 36.5327 44.3798 36.5327H44.3254H44.2151C44.1638 36.5327 44.1132 36.5281 44.0619 36.525C44.0251 36.525 43.9853 36.5197 43.9524 36.5158C43.9018 36.5112 43.8512 36.5059 43.7992 36.4997L43.6911 36.4852C43.6406 36.4775 43.59 36.4683 43.538 36.4591C43.5042 36.453 43.4698 36.4477 43.4361 36.44C43.3825 36.4293 43.3296 36.4163 43.2767 36.4032L43.1871 36.3818C43.1205 36.3642 43.0554 36.345 42.9895 36.3243L42.9435 36.3105C42.8669 36.2845 42.7842 36.2562 42.7061 36.2255C42.6816 36.2163 42.6578 36.2056 42.6341 36.1956C42.5805 36.1742 42.5268 36.152 42.474 36.1282C42.4441 36.1152 42.4142 36.1007 42.3851 36.0861C42.3392 36.0647 42.2925 36.0424 42.2473 36.0187L42.1553 35.9689C42.1124 35.9459 42.0696 35.9222 42.0274 35.8969L41.9355 35.8418C41.8949 35.8165 41.8535 35.7904 41.8137 35.7652L41.7249 35.7054C41.685 35.6778 41.6483 35.6487 41.6061 35.6196C41.564 35.5905 41.5502 35.5783 41.5234 35.5568C41.4828 35.5262 41.4468 35.494 41.4047 35.4611C41.3802 35.4404 41.3541 35.4197 41.3281 35.3983C41.2859 35.3615 41.2453 35.3217 41.204 35.2857L41.1435 35.2297C41.0837 35.1723 41.0255 35.1133 40.9696 35.0528C40.9121 34.9907 40.8532 34.931 40.7934 34.8728L40.7681 34.8483C40.7115 34.7924 40.6525 34.7387 40.5927 34.6859L40.5598 34.6575C40.5008 34.6055 40.4395 34.5549 40.3783 34.5043L40.3484 34.4806C40.284 34.4308 40.2189 34.381 40.1523 34.3343L40.1431 34.3274C40.0772 34.2807 40.0098 34.2362 39.9424 34.1926L39.9179 34.1765C39.8505 34.1344 39.7831 34.0938 39.7141 34.0539L39.6774 34.0333C39.61 33.995 39.541 33.9567 39.4721 33.923L39.4361 33.9053C39.3648 33.8701 39.2928 33.8356 39.2193 33.8035L39.2009 33.7958C39.1282 33.7636 39.0554 33.7338 38.9819 33.7054L38.9596 33.697C38.883 33.6687 38.811 33.6426 38.7352 33.6204L38.6969 33.6074C38.6203 33.5844 38.5483 33.5622 38.4732 33.5423L38.4334 33.5315C38.3568 33.5116 38.2802 33.4925 38.2036 33.4764L38.1776 33.471C38.101 33.4549 38.0244 33.4396 37.9424 33.4274H37.9271C37.8505 33.4151 37.767 33.4052 37.6866 33.396L37.6483 33.3914C37.5701 33.3837 37.492 33.3776 37.4139 33.373H37.371C37.2944 33.373 37.2124 33.3669 37.1328 33.3669H37.1029C37.014 33.3669 36.9236 33.3669 36.834 33.3745H36.8156C36.7222 33.3799 36.628 33.3883 36.5345 33.399C36.5345 33.399 36.3553 33.4465 36.1017 33.5262C36.0665 33.5369 36.0313 33.5492 35.9968 33.5629C35.9623 33.5767 35.9294 33.5905 35.8965 33.6066C35.7661 33.6684 35.6449 33.7481 35.5364 33.8433C35.4557 33.9142 35.3825 33.9932 35.3181 34.0792C35.2527 34.1649 35.1968 34.2573 35.1511 34.355C35.1046 34.4531 35.0684 34.5558 35.0431 34.6614C35.0347 34.6974 35.0271 34.7334 35.0209 34.7701C35.0125 34.8207 35.0033 34.872 34.9934 34.9233C34.9788 34.9946 34.9627 35.0643 34.9451 35.134C34.9397 35.1562 34.9328 35.1784 34.9275 35.1999C34.9145 35.2474 34.9022 35.2941 34.8876 35.34C34.88 35.3661 34.8716 35.3914 34.8631 35.4166C34.8493 35.458 34.8356 35.5001 34.821 35.5407C34.8118 35.5675 34.8019 35.5936 34.7919 35.6173C34.7766 35.6572 34.7613 35.6939 34.7452 35.7361L34.713 35.8127C34.6954 35.8517 34.6778 35.8893 34.6594 35.9298C34.6479 35.9536 34.6372 35.9781 34.6257 36.0019C34.605 36.0432 34.5836 36.0846 34.5621 36.1252C34.5514 36.1451 34.5414 36.1658 34.5299 36.1857C34.5001 36.2408 34.4687 36.2945 34.4357 36.3481L34.4273 36.3634C34.3913 36.4216 34.3507 36.4791 34.3155 36.5357L34.2802 36.5855C34.2526 36.6246 34.2258 36.6621 34.1967 36.7012C34.1822 36.7219 34.1661 36.7418 34.1508 36.7617C34.1247 36.7954 34.0979 36.8291 34.0742 36.8613C34.0504 36.8935 34.0397 36.9027 34.0221 36.9233C34.0045 36.944 33.9685 36.9854 33.9409 37.016L33.8857 37.0758C33.8574 37.1064 33.8283 37.1363 33.7992 37.1654L33.744 37.2213L33.6467 37.3117L33.5962 37.3584C33.5533 37.396 33.5104 37.435 33.4667 37.4687L33.443 37.4894C33.3901 37.5315 33.3373 37.5729 33.2837 37.6127L33.2369 37.6457C33.1979 37.674 33.1603 37.7016 33.119 37.7284L33.0562 37.769C33.0209 37.792 32.9849 37.8149 32.9489 37.8364L32.88 37.8778L32.7735 37.9375L32.7015 37.9766L32.5912 38.0317L32.52 38.0662C32.4809 38.0846 32.4434 38.1022 32.4013 38.119L32.3354 38.1482C32.2864 38.1681 32.2366 38.1872 32.1875 38.2056L32.1469 38.2209C32.0834 38.2439 32.0198 38.2653 31.9547 38.2853L31.9034 38.3006C31.8559 38.3144 31.8076 38.3282 31.7601 38.3404C31.7356 38.3473 31.7111 38.3527 31.6835 38.358C31.6422 38.3688 31.6 38.3787 31.5579 38.3871L31.4813 38.4032C31.4407 38.4109 31.4001 38.4185 31.3587 38.4247L31.276 38.4377C31.2354 38.4438 31.1941 38.4484 31.1527 38.4538L31.0707 38.4622C31.0271 38.4668 30.9834 38.4699 30.9397 38.4729L30.8631 38.4775C30.8118 38.4775 30.7597 38.4814 30.7099 38.4821H30.6579H30.6502C30.6104 38.4821 30.5736 38.4821 30.5307 38.4821H30.4365C30.3928 38.4821 30.3476 38.476 30.3032 38.4722C30.2741 38.4722 30.2442 38.4722 30.2151 38.466L30.0665 38.4477L29.9899 38.4385C29.9159 38.4267 29.8416 38.4137 29.767 38.3994C29.7134 38.3887 29.6537 38.3741 29.5924 38.358L29.4989 38.3328C29.4667 38.3236 29.4346 38.3159 29.4024 38.309L29.3702 38.3029L29.3036 38.2914L29.2684 38.2868C29.2469 38.2868 29.2255 38.2822 29.204 38.2799H29.1695H29.0983H29.0738C29.0317 38.2799 28.9895 38.2799 28.9474 38.286H28.9229C28.8815 38.2899 28.8409 38.2952 28.8003 38.3029L28.7797 38.3075C28.7391 38.3151 28.6992 38.3243 28.6594 38.3358H28.6448C28.6042 38.3481 28.5682 38.3611 28.5254 38.3764L28.5047 38.3841C28.4664 38.3986 28.4281 38.4155 28.3928 38.4331L28.3729 38.4431C28.3354 38.4614 28.2963 38.4814 28.2626 38.5036H28.258C28.2236 38.5243 28.1891 38.5472 28.1561 38.5717L28.1401 38.5832C28.1071 38.607 28.0757 38.633 28.0451 38.6598L28.0275 38.6752C27.9968 38.7027 27.9669 38.7311 27.9386 38.7609L27.9294 38.7717C27.9018 38.8 27.8758 38.8306 27.8528 38.8621C27.8528 38.8659 27.8459 38.8697 27.8429 38.8743C27.8176 38.9065 27.7931 38.9402 27.7709 38.9747L27.7571 38.9953C27.7349 39.0298 27.7134 39.0658 27.6943 39.1026L27.6851 39.1194C27.6667 39.1554 27.6491 39.196 27.633 39.2313L27.6284 39.2404C27.6123 39.2803 27.5977 39.3209 27.5847 39.3615C27.5847 39.3699 27.5794 39.3776 27.5771 39.386C27.5648 39.4266 27.5541 39.4679 27.5457 39.5101C27.5457 39.5177 27.5457 39.5254 27.5411 39.5331C27.5316 39.5773 27.5244 39.6221 27.5196 39.6671V39.6671C27.4743 40.076 27.5097 40.4898 27.6238 40.885C27.6399 40.9425 27.6583 40.9992 27.6782 41.0558C27.7126 41.1539 27.7433 41.2527 27.7716 41.3523C28.0428 42.3245 27.9939 43.3582 27.6322 44.3006C27.5824 44.4285 27.5288 44.5541 27.4675 44.6782C27.4208 44.7732 27.371 44.8666 27.3143 44.9593C27.1508 45.2414 26.9585 45.5058 26.7406 45.7483C26.6847 45.8103 26.6272 45.8708 26.5683 45.9291C26.5491 45.949 26.5284 45.9674 26.5093 45.9865C26.4694 46.0248 26.4327 46.0631 26.389 46.0991C26.3653 46.1213 26.34 46.142 26.3124 46.1635C26.2749 46.1956 26.2358 46.2278 26.1998 46.2584L26.1179 46.322C26.0818 46.3504 26.0451 46.3787 26.0075 46.4063L25.9202 46.4675C25.8835 46.4928 25.8436 46.5181 25.8092 46.5441C25.7747 46.5702 25.7486 46.5832 25.718 46.6016L25.6054 46.6698C25.574 46.6882 25.5426 46.7058 25.5104 46.7226C25.4783 46.7395 25.4338 46.764 25.3971 46.7839C25.3603 46.8038 25.3319 46.8168 25.299 46.8322C25.2661 46.8475 25.2224 46.8689 25.1826 46.8865C25.1427 46.9042 25.1167 46.9164 25.0838 46.9302C25.0508 46.944 25.0072 46.9631 24.965 46.9785L24.8647 47.0168L24.7421 47.0589C24.7092 47.0704 24.6755 47.0819 24.6426 47.0918L24.5162 47.1286L24.4174 47.1554C24.3729 47.1669 24.3293 47.1769 24.2848 47.1868L24.1899 47.2083L24.0451 47.2343L23.9601 47.2489C23.9003 47.258 23.8398 47.2649 23.7793 47.2718L23.7287 47.278C23.6521 47.2864 23.5755 47.2918 23.4989 47.2963H23.4338C23.3779 47.2963 23.322 47.3009 23.2661 47.3009H23.2538C23.2063 47.3009 23.1581 47.3009 23.1098 47.3009H23.0501C22.9735 47.3009 22.9053 47.2933 22.8325 47.2872L22.7858 47.2818C22.7291 47.2757 22.6724 47.2695 22.6165 47.2619C22.5897 47.2619 22.5629 47.2535 22.5399 47.2496C22.4947 47.2427 22.4495 47.2358 22.4051 47.2274L22.3155 47.209C22.2741 47.2006 22.232 47.1922 22.1914 47.1822C22.1508 47.1723 22.1286 47.1669 22.0979 47.1592L21.9807 47.1202L21.8865 47.0918C21.8475 47.0796 21.8099 47.0681 21.7709 47.0551L21.6744 47.0214C21.6368 47.0083 21.5978 46.9938 21.561 46.9792L21.4668 46.9417C21.43 46.9264 21.3902 46.9103 21.3557 46.8934C21.3212 46.8766 21.2937 46.8659 21.263 46.8513C21.2324 46.8368 21.1864 46.8161 21.1535 46.7977L21.0631 46.7517L20.9536 46.6905C20.9245 46.6744 20.8953 46.6583 20.867 46.6407C20.8387 46.623 20.7904 46.5955 20.7567 46.5725L20.6786 46.5204L20.566 46.4438C20.5407 46.4262 20.5162 46.4093 20.4894 46.3909C20.448 46.3611 20.4074 46.3289 20.3668 46.2967L20.3063 46.25C20.2466 46.1989 20.1876 46.1479 20.1294 46.0968C19.5302 45.559 19.0797 44.8758 18.8216 44.1131C18.5634 43.3505 18.5063 42.5341 18.6556 41.7429C18.6842 41.5943 18.7194 41.4473 18.7613 41.3017C18.8032 41.1562 18.8527 41.0124 18.9099 40.8705C19.1148 40.3606 19.4078 39.8908 19.7755 39.4825C19.8276 39.4243 19.8812 39.3691 19.9356 39.314L19.967 39.2826C20.018 39.2315 20.0717 39.1804 20.1278 39.1294L20.1585 39.1018C20.2121 39.0543 20.2657 39.0084 20.3216 38.9639L20.3339 38.9532C20.3921 38.9065 20.4511 38.8621 20.5108 38.8192L20.5476 38.7923C20.6066 38.751 20.6655 38.7104 20.7261 38.6713L20.7559 38.6522C20.8134 38.6162 20.8716 38.5809 20.9298 38.5472L20.9536 38.5334C21.0164 38.4982 21.0792 38.4653 21.1435 38.4323L21.1841 38.4124C21.2477 38.381 21.312 38.3504 21.3771 38.322L21.4032 38.3113C21.4645 38.2845 21.5258 38.26 21.5878 38.2347L21.62 38.2225C21.6858 38.1979 21.7525 38.175 21.8191 38.1535L21.862 38.1397C21.9302 38.119 21.9984 38.0984 22.0665 38.0807L22.0834 38.0761C22.1493 38.0593 22.2151 38.044 22.281 38.0302L22.3201 38.0218C22.3883 38.008 22.4564 37.9957 22.5254 37.985L22.5675 37.9789C22.638 37.9681 22.7092 37.9582 22.7812 37.9513C22.8524 37.9436 22.9237 37.939 22.9949 37.9344H23.037C23.1068 37.9344 23.1765 37.9298 23.2462 37.9291H23.2906C23.3404 37.9291 23.3902 37.9291 23.4438 37.9291H23.489C23.5503 37.9291 23.6123 37.936 23.6736 37.9413L23.7065 37.9452C23.7586 37.9498 23.8107 37.9559 23.8597 37.962L23.9103 37.9689C23.9716 37.9773 24.0336 37.9865 24.0949 37.998C24.1309 38.0041 24.1715 38.0087 24.2059 38.0126H24.2366C24.2703 38.0126 24.3048 38.0164 24.3392 38.0164H24.3553C24.399 38.0164 24.4442 38.0164 24.4894 38.0103H24.5185C24.5637 38.0103 24.6089 38.0011 24.6548 37.9942H24.677C24.7207 37.9873 24.7643 37.9796 24.8088 37.9704H24.8295C24.8769 37.9605 24.9244 37.949 24.9727 37.9367L25.0033 37.9291C25.0516 37.9161 25.0999 37.903 25.1489 37.8885L25.1642 37.8831C25.2102 37.8693 25.2561 37.854 25.3021 37.8387L25.3289 37.8295C25.3764 37.8126 25.4246 37.7958 25.4721 37.7774L25.5028 37.7659C25.551 37.7475 25.6 37.7284 25.6483 37.7077C26.0296 37.5517 26.3341 37.2517 26.4957 36.8727C26.6573 36.4938 26.663 36.0664 26.5116 35.6832C26.2572 35.0427 26.1553 34.3518 26.2139 33.6652C26.2725 32.9785 26.4901 32.3149 26.8494 31.7269C26.8866 31.6656 26.9257 31.6051 26.9666 31.5453C27.0106 31.4804 27.0498 31.4123 27.0838 31.3416C27.1172 31.2721 27.1451 31.2002 27.1673 31.1263C27.2478 30.8601 27.256 30.5772 27.191 30.3067C27.1782 30.2557 27.1629 30.2046 27.145 30.1535C27.1351 30.1252 27.1244 30.0984 27.1129 30.0708C27.0746 29.9776 27.0274 29.8883 26.9719 29.8042V29.8042C26.929 29.7506 26.8846 29.6978 26.8386 29.651C26.8241 29.6342 26.808 29.6181 26.7927 29.6013C26.7605 29.5668 26.7291 29.5331 26.6962 29.5009C26.677 29.4818 26.6579 29.4641 26.638 29.4458C26.618 29.4274 26.5759 29.3875 26.5445 29.36L26.4817 29.3063C26.4495 29.2795 26.4174 29.2535 26.3844 29.2297C26.3515 29.206 26.3415 29.196 26.3193 29.18C26.2848 29.1547 26.2504 29.1302 26.2151 29.1034L26.1516 29.0605C26.1125 29.0344 26.075 29.0107 26.0321 28.9839L25.9777 28.9509C25.8598 28.8843 25.738 28.8247 25.6131 28.7725L25.5526 28.7487C25.5097 28.7319 25.4668 28.7158 25.4231 28.7005L25.3465 28.6767C25.3067 28.6637 25.2699 28.6507 25.2255 28.6392L25.1489 28.6185L25.0278 28.5901L24.9512 28.5741C24.9099 28.5664 24.8685 28.5595 24.8272 28.5534L24.7506 28.5419L24.6127 28.5281C24.5905 28.5281 24.569 28.5235 24.5468 28.5227C24.4786 28.5181 24.4112 28.5158 24.3423 28.5158C24.294 28.5158 24.2458 28.5158 24.1975 28.5204C24.173 28.5204 24.1477 28.5204 24.1209 28.5204C24.0443 28.5258 23.9738 28.5335 23.9011 28.5434C23.8498 28.5503 23.7992 28.5564 23.7479 28.561C23.7318 28.561 23.7149 28.561 23.6981 28.5656C23.6636 28.5656 23.6299 28.5725 23.5955 28.5748H23.5349C23.5043 28.5748 23.4737 28.5787 23.4423 28.5794H23.3779H23.2891H23.2408C23.1642 28.5794 23.0876 28.5794 23.0171 28.5733H22.9995C22.9229 28.5695 22.854 28.5633 22.7812 28.5557H22.7521C22.6755 28.548 22.6058 28.5381 22.5338 28.5266L22.4917 28.5197C22.4197 28.5082 22.3477 28.4944 22.2764 28.4791L22.242 28.4714C22.0918 28.4377 21.9437 28.3971 21.7977 28.3496L21.764 28.3381C21.6943 28.3152 21.6253 28.2899 21.5564 28.2615L21.5173 28.2462C21.4484 28.2186 21.3802 28.1895 21.312 28.1581L21.286 28.1459C21.2186 28.1152 21.1519 28.0823 21.0861 28.0478L21.0708 28.0394C21.0033 28.0042 20.9375 27.9628 20.8716 27.9276L20.8364 27.9069C20.7728 27.8686 20.71 27.8303 20.6479 27.7866L20.6142 27.7636C20.5506 27.72 20.4878 27.6748 20.4266 27.6281L20.412 27.6166C20.3523 27.5706 20.2933 27.5231 20.2351 27.4733L20.2121 27.4542C20.1539 27.4044 20.0964 27.3523 20.0405 27.301L20.0083 27.2704C19.9532 27.2167 19.8988 27.1623 19.8459 27.1057L19.8199 27.0773C19.7647 27.0168 19.7104 26.9563 19.6575 26.8927C19.2155 26.3613 18.8969 25.7384 18.7247 25.0689C18.5525 24.3995 18.531 23.7002 18.6617 23.0214C18.7037 22.7998 18.7616 22.5814 18.8348 22.368C18.8593 22.2968 18.8862 22.2263 18.9114 22.1558C18.9962 21.9446 19.0963 21.7398 19.2109 21.5431C19.327 21.343 19.4582 21.1519 19.6031 20.9716C19.8011 20.7244 20.0236 20.4978 20.2672 20.2953C20.3262 20.2462 20.386 20.1995 20.4465 20.1543L20.5055 20.1114C20.5468 20.0816 20.5882 20.0517 20.6303 20.0226L20.7015 19.9758C20.7406 19.9506 20.7781 19.9253 20.8195 19.8992L20.8961 19.8541C20.9359 19.8311 20.9727 19.8081 21.0148 19.7866L21.0914 19.7453C21.1328 19.7238 21.1734 19.7032 21.2155 19.6832L21.2921 19.6472C21.3373 19.6266 21.3833 19.6066 21.4285 19.5875C21.4499 19.5783 21.4706 19.5683 21.492 19.5599C21.5533 19.5346 21.6146 19.5117 21.6759 19.4894C21.6821 19.4867 21.6885 19.4844 21.695 19.4825C21.764 19.458 21.8329 19.4351 21.9026 19.4136L21.9539 19.3998C22.005 19.3845 22.0561 19.3699 22.1071 19.3562L22.1837 19.3393C22.2289 19.3286 22.2749 19.3179 22.3208 19.3087L22.3974 19.2934C22.4419 19.2849 22.4855 19.2773 22.53 19.2704L22.6127 19.2581C22.6563 19.252 22.7008 19.2466 22.7452 19.242L22.8233 19.2344C22.8693 19.2298 22.9153 19.2267 22.9612 19.2236L23.0378 19.219C23.0914 19.219 23.1451 19.2152 23.1994 19.2145H23.3105C23.371 19.2145 23.4315 19.2145 23.492 19.2198L23.5771 19.2252C23.6284 19.2252 23.6797 19.2328 23.7303 19.2382L23.8229 19.2489C23.872 19.2543 23.921 19.2612 23.9693 19.2681L24.0635 19.2842L24.2075 19.311C24.2389 19.3179 24.2703 19.324 24.3009 19.3316C24.3492 19.3424 24.3974 19.3546 24.4457 19.3669L24.5346 19.3906C24.5851 19.4044 24.6357 19.4205 24.6877 19.4366L24.7643 19.4619C24.8218 19.481 24.8785 19.5025 24.9359 19.5239L24.9911 19.5446C25.0677 19.5745 25.1443 19.6066 25.2163 19.6403L25.2354 19.6503C25.3021 19.6809 25.3679 19.7131 25.4338 19.7476L25.5012 19.7851C25.5503 19.8112 25.5985 19.838 25.6468 19.8663L25.7234 19.9146C25.767 19.9421 25.8099 19.969 25.8528 19.9973L25.934 20.0532C25.9746 20.0816 26.0152 20.1107 26.055 20.1405C26.0818 20.1604 26.1094 20.1811 26.1316 20.2018C26.1715 20.2325 26.2082 20.2639 26.2481 20.296C26.2741 20.3175 26.3002 20.3389 26.3247 20.3611C26.3637 20.3948 26.4013 20.4301 26.4396 20.4653C26.4633 20.4875 26.4871 20.509 26.5108 20.532C26.5514 20.571 26.5874 20.6086 26.6303 20.653C26.6502 20.6737 26.6694 20.6928 26.6885 20.7135C26.746 20.7755 26.8026 20.8391 26.857 20.905C26.8923 20.9471 26.9267 20.99 26.9597 21.0329C27.4498 21.6676 27.7689 22.4174 27.8867 23.2106C28.0044 24.0039 27.9168 24.814 27.6322 25.5637C27.4227 26.1097 27.3585 26.7007 27.4458 27.279C27.533 27.8573 27.7688 28.403 28.1301 28.8628C28.1301 28.8628 28.2496 28.9877 28.4166 29.1493L28.4572 29.1884L28.5192 29.2474L28.5407 29.268C28.5736 29.2987 28.6081 29.327 28.6425 29.3546L28.664 29.3715C28.6985 29.3975 28.7337 29.422 28.7697 29.4442C28.7761 29.4488 28.7827 29.4529 28.7896 29.4565C28.8233 29.4772 28.8586 29.4971 28.8938 29.5155L28.9083 29.5224C28.9466 29.5415 28.9849 29.5584 29.0248 29.5744L29.0516 29.5844C29.0914 29.5997 29.1282 29.6135 29.1726 29.625L29.1872 29.6288C29.2262 29.6396 29.2638 29.648 29.3044 29.6556L29.3273 29.6602C29.3687 29.6679 29.4108 29.6733 29.453 29.6779H29.4798C29.5227 29.6779 29.5663 29.6832 29.61 29.6832C29.6506 29.6832 29.6912 29.6832 29.7318 29.6779H29.7624C29.803 29.674 29.8444 29.6694 29.885 29.6625C29.9478 29.6518 30.0114 29.6426 30.0749 29.635L30.137 29.6281L30.2664 29.615L30.343 29.6104C30.3821 29.6104 30.4196 29.6051 30.461 29.6036H30.5422H30.6242H30.6525C30.6931 29.6036 30.7337 29.6036 30.7743 29.6036H30.8639C30.9068 29.6036 30.9497 29.6097 30.9918 29.6127L31.0769 29.6204C31.1243 29.625 31.1718 29.6311 31.2193 29.638C31.2431 29.638 31.2668 29.6434 31.2898 29.6472C31.361 29.6579 31.4323 29.6702 31.5027 29.6847C31.5908 29.7024 31.6774 29.7238 31.7632 29.746C32.758 30.0081 33.6304 30.6086 34.2304 31.4442C34.2626 31.4886 34.2971 31.5315 34.3331 31.5721C34.4044 31.6536 34.484 31.7276 34.5705 31.7927C34.7869 31.958 35.0428 32.0637 35.3128 32.0991C35.849 32.1681 36.356 32.1865 36.356 32.1865C36.4686 32.1734 36.5812 32.1566 36.6923 32.1367C36.7735 32.1221 36.8539 32.106 36.9336 32.0877C37.0133 32.0693 37.0868 32.0517 37.158 32.031C37.5521 31.9236 37.9323 31.7706 38.2909 31.5752C39.1359 31.119 39.8347 30.4335 40.307 29.5974C40.5099 29.2377 40.7592 28.9063 41.0485 28.6116C41.1151 28.5442 41.1833 28.4783 41.2538 28.4147C41.5427 28.1546 41.8631 27.9318 42.2074 27.7514C42.2886 27.7085 42.3714 27.6687 42.4556 27.6304C42.6952 27.5225 42.9435 27.4351 43.1979 27.3692C43.2538 27.3546 43.3105 27.3416 43.3671 27.3286C43.4514 27.3102 43.5372 27.2941 43.623 27.2795C43.7088 27.265 43.8168 27.252 43.9148 27.242C43.9914 27.2344 44.0718 27.229 44.15 27.2252H44.2266C44.2756 27.2252 44.3254 27.2252 44.3736 27.2252H44.3821H44.4587C44.5085 27.2252 44.5575 27.2252 44.6065 27.2298C44.6371 27.2298 44.6678 27.2343 44.6984 27.2366L44.8325 27.2466L44.929 27.2581L45.0554 27.2749C45.0883 27.2795 45.1205 27.2857 45.1534 27.291C45.1864 27.2964 45.2354 27.3048 45.2752 27.3132C45.315 27.3217 45.3411 27.327 45.374 27.3339L45.492 27.3623C45.5249 27.3699 45.5579 27.3791 45.59 27.3875L45.7057 27.4205L45.8022 27.4511C45.8397 27.4634 45.8788 27.4756 45.9148 27.4894C45.9508 27.5032 45.9784 27.5116 46.0098 27.5239C46.0412 27.5361 46.0864 27.5522 46.1201 27.5676C46.1538 27.5829 46.1821 27.5928 46.2128 27.6066C46.2434 27.6204 46.2856 27.6388 46.3208 27.6549L46.4119 27.6978L46.5176 27.7522L46.605 27.7981C46.6402 27.818 46.6754 27.8379 46.7099 27.8586L46.7934 27.9077C46.8286 27.9291 46.8631 27.9513 46.8976 27.9743L46.9742 28.0249C47.0109 28.0494 47.0462 28.0754 47.0814 28.1014C47.1044 28.1183 47.1281 28.1344 47.1511 28.152C47.1925 28.1826 47.2331 28.2148 47.2737 28.247C47.2898 28.26 47.3066 28.2723 47.3219 28.2853C47.3779 28.3312 47.4322 28.378 47.4851 28.4262C47.5027 28.4415 47.5188 28.4584 47.5356 28.4737C47.5716 28.5074 47.6076 28.5411 47.6429 28.5756C47.6636 28.5963 47.6835 28.6177 47.7042 28.6392C47.7248 28.6606 47.7647 28.7005 47.7938 28.7319L47.8566 28.8031C47.8834 28.8337 47.911 28.8644 47.937 28.8958L47.9983 28.9724C48.0236 29.0038 48.0489 29.0352 48.0749 29.0666C48.1009 29.098 48.1147 29.1202 48.1346 29.147C48.1546 29.1738 48.1806 29.2114 48.2028 29.2443C48.225 29.2772 48.2411 29.2995 48.2595 29.3278C48.2779 29.3561 48.3024 29.3937 48.3231 29.4274L48.3759 29.5147C48.3958 29.5484 48.4158 29.5829 48.4349 29.6173C48.4541 29.6518 48.4679 29.6763 48.4832 29.707C48.4985 29.7376 48.5199 29.7774 48.5376 29.8127C48.5552 29.8479 48.5674 29.8739 48.582 29.9046C48.5965 29.9352 48.6157 29.9812 48.6318 30.0141C48.6479 30.0471 48.6586 30.0769 48.6716 30.1083C48.6846 30.1397 48.7015 30.1849 48.716 30.2209C48.7306 30.2569 48.7405 30.2845 48.752 30.3167C48.7635 30.3489 48.7788 30.3933 48.7919 30.4346C48.8049 30.476 48.8125 30.4982 48.8225 30.5304C48.8325 30.5626 48.8455 30.6124 48.857 30.6537C48.8685 30.6951 48.8746 30.7165 48.8823 30.7487C48.8899 30.7809 48.9029 30.836 48.9129 30.8797C48.919 30.9103 48.9267 30.9402 48.9328 30.9708C48.9428 31.0199 48.9504 31.0697 48.9589 31.1187C48.9627 31.1455 48.968 31.1715 48.9719 31.1953C48.9826 31.268 48.9918 31.3423 48.9994 31.4166C48.9991 31.4197 48.9991 31.4228 48.9994 31.4258C49.0758 32.1974 48.9579 32.9758 48.6563 33.6901L48.6724 33.6909Z" fill="#ED008C"/>
<path d="M36.5296 25.2521C38.4168 25.2521 39.9467 23.7222 39.9467 21.835C39.9467 19.9478 38.4168 18.418 36.5296 18.418C34.6424 18.418 33.1125 19.9478 33.1125 21.835C33.1125 23.7222 34.6424 25.2521 36.5296 25.2521Z" fill="white"/>
<path d="M36.5298 26.6698C35.5735 26.67 34.6386 26.3866 33.8434 25.8554C33.0482 25.3242 32.4284 24.5691 32.0624 23.6857C31.6963 22.8022 31.6004 21.8301 31.7869 20.8921C31.9734 19.9542 32.4338 19.0926 33.1099 18.4164C33.7861 17.7401 34.6476 17.2796 35.5855 17.093C36.5234 16.9063 37.4956 17.002 38.3791 17.368C39.2626 17.7339 40.0177 18.3536 40.549 19.1487C41.0803 19.9438 41.3639 20.8786 41.3639 21.8349C41.3625 23.1166 40.8528 24.3455 39.9465 25.2519C39.0403 26.1583 37.8115 26.6682 36.5298 26.6698V26.6698ZM36.5298 19.8349C36.134 19.8348 35.7471 19.952 35.4179 20.1718C35.0888 20.3916 34.8322 20.7041 34.6807 21.0697C34.5292 21.4353 34.4895 21.8376 34.5667 22.2258C34.6438 22.614 34.8344 22.9706 35.1143 23.2504C35.3941 23.5303 35.7507 23.7209 36.1389 23.798C36.5271 23.8752 36.9294 23.8355 37.295 23.684C37.6606 23.5325 37.9731 23.2759 38.1929 22.9468C38.4127 22.6176 38.5299 22.2307 38.5298 21.8349C38.5292 21.3047 38.3183 20.7963 37.9433 20.4214C37.5684 20.0464 37.06 19.8355 36.5298 19.8349V19.8349Z" fill="white"/>
<path d="M36.5297 18.4188C37.2058 18.4186 37.8667 18.619 38.4289 18.9945C38.9911 19.3699 39.4293 19.9037 39.688 20.5283C39.9468 21.1529 40.0146 21.8401 39.8827 22.5032C39.7509 23.1663 39.4253 23.7753 38.9473 24.2534C38.4693 24.7314 37.8602 25.057 37.1971 25.1888C36.534 25.3207 35.8468 25.2529 35.2222 24.9941C34.5977 24.7353 34.0639 24.2972 33.6884 23.735C33.3129 23.1728 33.1125 22.5119 33.1127 21.8358C33.1127 20.9296 33.4727 20.0604 34.1135 19.4196C34.7543 18.7788 35.6235 18.4188 36.5297 18.4188V18.4188ZM36.5297 17.5762C35.6871 17.576 34.8632 17.8258 34.1625 18.2939C33.4618 18.7619 32.9156 19.4273 32.593 20.2059C32.2705 20.9844 32.186 21.8411 32.3504 22.6676C32.5147 23.4941 32.9205 24.2533 33.5164 24.8492C34.1123 25.4451 34.8715 25.8508 35.698 26.0152C36.5245 26.1796 37.3812 26.0951 38.1597 25.7726C38.9383 25.45 39.6036 24.9038 40.0717 24.2031C40.5398 23.5023 40.7896 22.6785 40.7894 21.8358C40.788 20.7065 40.3388 19.6239 39.5402 18.8254C38.7417 18.0268 37.659 17.5776 36.5297 17.5762V17.5762Z" fill="#ED008C"/>
<path d="M35.8879 46.4682C37.1088 46.4682 38.0985 45.4784 38.0985 44.2575C38.0985 43.0366 37.1088 42.0469 35.8879 42.0469C34.667 42.0469 33.6772 43.0366 33.6772 44.2575C33.6772 45.4784 34.667 46.4682 35.8879 46.4682Z" fill="white"/>
<path d="M35.888 47.8843C35.1705 47.8843 34.4691 47.6716 33.8725 47.273C33.2759 46.8743 32.811 46.3078 32.5364 45.6449C32.2618 44.982 32.19 44.2526 32.33 43.5489C32.4699 42.8452 32.8154 42.1988 33.3228 41.6914C33.8301 41.1841 34.4765 40.8386 35.1802 40.6986C35.884 40.5586 36.6134 40.6305 37.2763 40.9051C37.9391 41.1796 38.5057 41.6446 38.9043 42.2412C39.3029 42.8377 39.5157 43.5391 39.5157 44.2566C39.5147 45.2184 39.1322 46.1406 38.452 46.8207C37.7719 47.5008 36.8498 47.8833 35.888 47.8843V47.8843ZM35.888 43.4631C35.731 43.4631 35.5776 43.5096 35.4471 43.5968C35.3166 43.684 35.2149 43.8079 35.1548 43.9529C35.0948 44.0979 35.079 44.2575 35.1097 44.4114C35.1403 44.5654 35.2159 44.7068 35.3268 44.8178C35.4378 44.9287 35.5792 45.0043 35.7332 45.0349C35.8871 45.0656 36.0467 45.0498 36.1917 44.9898C36.3367 44.9297 36.4606 44.828 36.5478 44.6975C36.635 44.567 36.6815 44.4136 36.6815 44.2566C36.6813 44.0462 36.5977 43.8445 36.4489 43.6957C36.3001 43.5469 36.0984 43.4633 35.888 43.4631V43.4631Z" fill="white"/>
<path d="M35.8879 42.0477C36.3252 42.0477 36.7526 42.1773 37.1161 42.4202C37.4797 42.6631 37.763 43.0084 37.9303 43.4123C38.0976 43.8163 38.1414 44.2608 38.0561 44.6896C37.9708 45.1184 37.7603 45.5123 37.4511 45.8215C37.1419 46.1306 36.748 46.3412 36.3192 46.4265C35.8904 46.5118 35.4459 46.468 35.042 46.3007C34.638 46.1334 34.2928 45.85 34.0499 45.4865C33.807 45.1229 33.6773 44.6955 33.6773 44.2583C33.6773 43.672 33.9102 43.1097 34.3248 42.6952C34.7394 42.2806 35.3016 42.0477 35.8879 42.0477V42.0477ZM35.8879 41.2051C35.2841 41.2051 34.6938 41.3841 34.1917 41.7196C33.6896 42.0551 33.2982 42.532 33.0671 43.0899C32.836 43.6478 32.7756 44.2617 32.8934 44.854C33.0112 45.4462 33.302 45.9903 33.729 46.4173C34.156 46.8443 34.7 47.1351 35.2923 47.2529C35.8846 47.3707 36.4985 47.3102 37.0564 47.0791C37.6143 46.848 38.0911 46.4567 38.4266 45.9546C38.7621 45.4525 38.9412 44.8622 38.9412 44.2583C38.9404 43.4488 38.6184 42.6727 38.046 42.1002C37.4736 41.5278 36.6975 41.2059 35.8879 41.2051V41.2051Z" fill="#ED008C"/>
</g>
<defs>
<clipPath id="clip0_1569_29662">
<rect width="34" height="34" fill="white" transform="translate(17 17)"/>
</clipPath>
</defs>
</svg>
