<svg width="32" height="31" viewBox="0 0 32 31" fill="none" xmlns="http://www.w3.org/2000/svg">
<path d="M21.5002 27.0001C21.9002 26.6001 21.5 26 21.5002 25.5001L21.5 25C21.4998 24.4999 21 23 20.5 23C20 23 20.5 24.5 20 24.5C19.5 24.5 19.5 28.0001 19.5 28.5C19.5 28.9999 21.9638 29.5 21 30.5C20.0362 31.5 19 30.5 18.5 30C18 29.5 17.5 29.5 18 29C18.5 28.5 18 27 18.5 26C18.9 25.2 18.3333 25 18 25C17.5 25 17.5 23.5 17.5 23C17.5 22.5 17 22 16.5 21.5C16 21 9.5 22 9 21.5C8.5 21 7 23 6 24.5C5.2 25.7 5.66667 27.3333 6 28C8 29.5 6.5 30 6 30C5.5 30 5 29.5 5 29C5 28.5 4.5 28 4.5 26C4.5 24.4 4.16667 24 4 24C2.5 24 3 28 3 28.5C3 29 4.5 30 4 30.5C3.5 31 2 30.5 2 30C2 29.5 1 29.5 1.5 29C2 28.5 1.5 26 1 25.5C0.5 25 1 25 1 24.5C1 24 0.5 23.5 0.5 23C0.5 22.5 1 22 1 21.5C1 21.1 1.33333 19.6667 1.5 19C1.99976 17 2.50024 17.5 1.00024 15C-0.499763 12.5 0.500237 10.5 1.00024 9.5C1.50024 8.5 3.50024 8 4.00024 7C4.50024 6 4.50024 6.5 5.50024 6C6.50024 5.5 13.5002 6 15.0002 6C16.5002 6 16.0002 6 16.5002 5.5C17.0002 5 19.0002 5.5 20.0002 5.5C21.0002 5.5 23.0002 0 26.5002 0C30.0002 0 29.0002 2 30.0002 2.5C31.0002 3 30.5002 3.5 30.0002 3.5C29.5002 3.5 30.0002 5 31.0002 6.5C32.0002 8 29.5002 9.00011 28.5002 8.00014C27.5002 7.5 27.5002 8.00014 27.5002 8.50014C27.5002 8.83348 27.4002 9.50014 27.0002 9.50014C26.5002 9.50014 27.5002 10.0001 27.0002 10.5001C26.5002 11.0001 27.0002 12.0001 27.0002 12.5001C27.0002 13.0001 27.0002 13.5001 26.5002 13.5001C26.0002 13.5001 26.0002 14.0001 26.0002 14.5001C26.0002 15.0001 25.5002 14.5001 25.5002 15.0001C25.5002 15.5001 25.0002 16.0001 25.0002 16.5001C25.0002 17.0001 24.5002 17.0001 24.0002 17.5001C23.5002 18.0001 24.5002 19.5001 24.0002 19.5001C23.5002 19.5001 24.0002 21.5001 23.5002 21.5001C23.0002 21.5001 23.0002 23.5001 23.0002 24.0001C23.0002 24.5001 22.5002 25.5001 22.5002 26.5001C22.5002 27.5001 23.0002 27.5001 23.5002 28.0001C24.0002 28.5001 24.5002 29.5001 23.0002 30.0001C21.5002 30.5001 22.0002 28.0001 21.5002 28.0001C21.0002 28.0001 21.0002 27.5001 21.5002 27.0001Z" fill="white"/>
</svg>
