<svg width="403" height="61" viewBox="0 0 403 61" fill="none" xmlns="http://www.w3.org/2000/svg">
<path d="M134.687 45.7684L127.31 53.5158H112.069C109.739 53.5158 107.604 53.1284 105.662 52.4505C103.721 51.7726 102.07 50.8042 100.711 49.6421C99.3522 48.48 98.2844 47.0274 97.5078 45.3811C96.7312 43.7347 96.3429 41.9916 96.3429 40.0547C96.3429 37.5368 96.9253 35.3095 97.9932 33.2758C99.061 31.2421 100.614 29.4021 102.556 27.9495C104.497 26.4968 106.73 25.3347 109.254 24.4632C111.778 23.5916 114.593 23.2042 117.408 23.2042H138.667L131.29 31.0484H116.049C114.69 31.0484 113.331 31.2421 112.069 31.7263C110.807 32.1137 109.739 32.6947 108.768 33.4695C107.798 34.2442 107.118 35.1158 106.536 36.0842C105.953 37.0526 105.759 38.2147 105.759 39.3768C105.759 40.3453 105.953 41.12 106.342 41.8947C106.73 42.6695 107.215 43.3474 107.895 43.8316C108.574 44.4126 109.351 44.8 110.322 45.0905C111.292 45.3811 112.263 45.5747 113.428 45.5747H134.687V45.7684ZM179.632 23.3011L172.158 31.1453H161.383L157.305 53.5158H147.889L151.869 31.1453H137.696L145.171 23.3011H179.632ZM186.525 53.5158H177.109L182.448 23.3011H191.767L186.525 53.5158ZM206.91 23.3011L217.006 43.3474L234.771 23.3011H245.837L221.568 50.6105C220.792 51.4821 219.821 52.2568 218.753 52.9347C217.686 53.6126 216.424 54 214.87 54C213.414 54 212.346 53.7095 211.473 53.0316C210.599 52.3537 210.017 51.5789 209.434 50.6105L195.358 23.3011H206.91ZM86.9267 54L76.831 33.9537L59.0664 54H48L72.2685 26.6905C73.0451 25.8189 74.0159 25.0442 75.0837 24.3663C76.1515 23.6884 77.4135 23.3011 78.9666 23.3011C80.4227 23.3011 81.4906 23.5916 82.3642 24.2695C83.2379 24.9474 83.8203 25.7221 84.4028 26.6905L98.4785 54H86.9267ZM255.253 30.7579C256.224 30.7579 256.515 30.9516 256.612 31.8232L257.971 48.9642H255.156L254.768 43.8316H247.779L244.963 48.9642H241.954L252.147 31.4358C252.438 30.8547 252.632 30.7579 253.409 30.7579H255.253ZM249.235 41.5074H254.671L254.185 33.3726H253.797L249.235 41.5074ZM273.212 30.8547C275.542 30.8547 276.61 31.2421 277.386 32.1137C278.648 33.3726 278.648 35.9874 277.677 40.2484C276.61 44.5095 275.639 46.3495 274.571 47.4147C273.212 48.7705 271.562 49.0611 269.329 49.0611H261.66L266.223 30.8547H273.212ZM268.455 33.2758L265.155 46.5432H269.911C271.076 46.5432 271.95 46.3495 272.532 45.7684C273.212 45.0905 273.794 44.0253 274.862 39.9579C275.833 35.8905 275.833 34.5347 275.153 33.8568C274.668 33.3726 274.086 33.2758 272.824 33.2758H268.455ZM282.919 30.8547H285.832L286.608 46.2526H286.996L295.345 30.8547H298.451L288.647 48.3832C288.355 48.9642 288.161 49.0611 287.385 49.0611H285.346C284.375 49.0611 284.084 48.8674 283.987 47.9958L282.919 30.8547ZM308.45 30.7579C309.421 30.7579 309.712 30.9516 309.809 31.8232L311.168 48.9642H308.353L308.062 43.8316H301.072L298.257 48.9642H295.248L305.246 31.4358C305.538 30.8547 305.732 30.7579 306.508 30.7579H308.45ZM302.431 41.5074H307.867L307.382 33.3726H306.994L302.431 41.5074ZM329.127 49.0611H326.409C325.632 49.0611 325.438 48.8674 325.244 48.1895L321.555 34.6316H321.167L317.575 49.0611H314.76L319.322 30.8547H322.428C323.205 30.8547 323.399 31.0484 323.593 31.7263L327.088 44.7032H327.476L330.874 30.8547H333.689L329.127 49.0611ZM345.435 33.2758L341.552 48.9642H338.64L342.523 33.2758H336.893L337.475 30.8547H351.648L351.065 33.2758H345.435ZM361.452 30.7579C362.423 30.7579 362.714 30.9516 362.811 31.8232L364.17 48.9642H361.355L361.064 43.8316H354.075L351.259 48.9642H348.25L358.443 31.4358C358.734 30.8547 358.928 30.7579 359.705 30.7579H361.452ZM355.434 41.5074H360.87L360.384 33.3726H359.996L355.434 41.5074ZM376.013 41.9916L376.596 39.5705H383.585C383.391 40.2484 383.294 41.0232 383.003 41.8947C381.838 46.3495 380.964 47.3179 380.382 47.8989C379.314 48.9642 378.343 49.0611 376.693 49.0611H372.325C370.674 49.0611 369.995 48.7705 369.412 48.1895C368.442 47.2211 367.956 45.4779 369.412 39.6674C370.868 33.76 371.839 32.6947 372.519 32.0168C373.587 30.9516 374.557 30.8547 376.208 30.8547H380.673C382.323 30.8547 383.003 31.1453 383.585 31.7263C384.362 32.5011 384.556 33.6632 384.071 36.5684H381.352C381.741 34.2442 381.644 33.8568 381.352 33.5663C381.158 33.3726 380.867 33.2758 380.091 33.2758H375.916C375.043 33.2758 374.654 33.4695 374.363 33.6632C374.072 33.9537 373.587 34.6316 372.228 39.8611C370.868 45.1874 371.16 45.8653 371.451 46.1558C371.645 46.3495 371.936 46.4463 372.713 46.4463H376.887C377.761 46.4463 378.149 46.2526 378.44 46.0589C378.634 45.8653 379.12 45.2842 379.993 41.8947H376.013V41.9916ZM398.438 49.0611H386.303L390.866 30.8547H403L402.418 33.2758H393.196L391.934 38.3116H399.505L398.923 40.7326H391.351L389.992 46.4463H399.214L398.438 49.0611ZM124.106 8H133.425V9.35579H126.824V12.4547H133.134V13.8105H126.824V17.2968H133.619V18.6526H124.106V8ZM140.609 17.2C140.22 17.7811 139.347 18.7495 137.308 18.7495C135.658 18.7495 134.299 17.9747 134.299 16.3284V11.2926H136.823V15.4568C136.823 16.9095 137.017 17.2 137.988 17.2C139.735 17.2 140.609 15.6505 140.609 14.4884V11.2926H143.133V18.6526H140.609V17.2ZM144.686 8H147.21V14.1011L150.801 11.2926H153.908L149.831 14.4884L154.296 18.6526H151.19L147.307 14.9726V18.6526H144.783V8H144.686ZM159.829 17.7811C159.441 18.2653 158.664 18.7495 156.917 18.7495C155.073 18.7495 153.714 17.9747 153.714 16.8126C153.714 14.3916 158.373 14.3916 159.829 14.2947V13.6168C159.829 12.9389 159.538 12.2611 158.276 12.2611C156.82 12.2611 156.626 12.9389 156.626 13.4232H154.102C154.102 12.0674 155.461 11.0989 158.276 11.0989C160.994 11.0989 162.256 11.8737 162.256 13.4232V18.6526H159.829V17.7811ZM157.597 17.5874C159.247 17.5874 159.926 16.4253 159.926 15.36C158.276 15.36 156.238 15.6505 156.238 16.7158C156.238 17.2968 156.723 17.5874 157.597 17.5874ZM163.809 11.2926H166.333V12.6484C166.722 12.0674 167.595 11.0989 169.634 11.0989C171.284 11.0989 172.643 11.8737 172.643 13.52V18.6526H170.119V14.3916C170.119 12.9389 169.925 12.6484 168.954 12.6484C167.207 12.6484 166.333 14.1979 166.333 15.36V18.6526H163.809V11.2926ZM180.409 17.2C180.021 17.7811 179.147 18.7495 177.109 18.7495C175.458 18.7495 174.099 17.9747 174.099 16.3284V11.2926H176.623V15.4568C176.623 16.9095 176.817 17.2 177.788 17.2C179.535 17.2 180.409 15.6505 180.409 14.4884V11.2926H182.933V18.6526H180.409V17.2ZM186.913 12.1642C187.301 11.7768 188.078 11.0989 189.825 11.0989C192.446 11.0989 193.611 12.5516 193.611 14.9726C193.611 17.0063 192.543 18.8463 188.952 18.8463C186.039 18.8463 184.389 17.7811 184.389 15.5537V8H186.913V12.1642ZM188.952 17.5874C190.602 17.5874 190.893 16.1347 190.893 14.9726C190.893 13.6168 190.699 12.2611 188.952 12.2611C187.398 12.2611 186.913 13.8105 186.913 14.9726C186.913 16.8126 187.301 17.5874 188.952 17.5874ZM200.115 17.7811C199.727 18.2653 198.95 18.7495 197.203 18.7495C195.358 18.7495 193.999 17.9747 193.999 16.8126C193.999 14.3916 198.659 14.3916 200.115 14.2947V13.6168C200.115 12.9389 199.824 12.2611 198.562 12.2611C197.106 12.2611 196.912 12.9389 196.912 13.4232H194.388C194.388 12.0674 195.747 11.0989 198.562 11.0989C201.28 11.0989 202.542 11.8737 202.542 13.4232V18.6526H200.115V17.7811ZM197.785 17.5874C199.436 17.5874 200.115 16.4253 200.115 15.36C198.465 15.36 196.426 15.6505 196.426 16.7158C196.426 17.2968 196.912 17.5874 197.785 17.5874Z" fill="white"/>
<path d="M0 0L15.5233 30.4757L0 61H12.4767L28 30.4757L12.4767 0H0Z" fill="white"/>
</svg>
